<svg xmlns="http://www.w3.org/2000/svg" width="27.929" height="18.299" viewBox="0 0 27.929 18.299">
  <g id="belarus" transform="translate(0 0)">
    <path id="Path_7391" data-name="Path 7391" d="M2.092,340.264H25.838a2.092,2.092,0,0,0,2.092-2.092v-2.724H0v2.724A2.092,2.092,0,0,0,2.092,340.264Z" transform="translate(0 -321.965)" fill="#73af00"/>
    <path id="Path_7392" data-name="Path 7392" d="M27.929,90.368a2.092,2.092,0,0,0-2.092-2.092H2.092A2.092,2.092,0,0,0,0,90.368V101.76H27.929Z" transform="translate(0 -88.276)" fill="#ff4b55"/>
    <path id="Path_7393" data-name="Path 7393" d="M2.092,106.575H3.852v-18.3H2.092A2.092,2.092,0,0,0,0,90.368v14.116A2.092,2.092,0,0,0,2.092,106.575Z" transform="translate(0 -88.276)" fill="#f5f5f5"/>
    <g id="Group_2115" data-name="Group 2115" transform="translate(0.482 0.481)">
      <rect id="Rectangle_1400" data-name="Rectangle 1400" width="0.17" height="0.477" transform="translate(2.719 12.144)" fill="#ff4b55"/>
      <rect id="Rectangle_1401" data-name="Rectangle 1401" width="0.17" height="0.477" transform="translate(0 2.639)" fill="#ff4b55"/>
      <path id="Path_7394" data-name="Path 7394" d="M8.833,158.01h.086v.242H9v.239h.254v-.239h.086v-.242h.083v-.318H9.343v-.242H9.258v-.235H9v.235H8.919v.242H8.833Zm.17-.239h.084v-.159h.087v.159h.083v.159H9.175v.163H9.087v-.163H9Z" transform="translate(-8.833 -153.935)" fill="#ff4b55"/>
      <rect id="Rectangle_1402" data-name="Rectangle 1402" width="0.17" height="0.481" transform="translate(0 4.715)" fill="#ff4b55"/>
      <rect id="Rectangle_1403" data-name="Rectangle 1403" width="0.17" height="0.477" transform="translate(1.359 2.639)" fill="#ff4b55"/>
      <path id="Path_7395" data-name="Path 7395" d="M26.137,157.214v.235h-.085v.242h-.086v.318h.086v.242h.085v.239h.254v-.239h.17v.239h.255v-.239H26.9v-.242h.083v-.318H26.9v-.242h-.086v-.235h-.255v.235h-.17v-.235Zm.425.557h.086v-.159h.086v.159h.084v.159h-.084v.163h-.086v-.163h-.086Zm-.17.159h-.084v.163h-.087v-.163h-.084v-.159h.084v-.159h.087v.159h.084Z" transform="translate(-25.032 -153.935)" fill="#ff4b55"/>
      <rect id="Rectangle_1404" data-name="Rectangle 1404" width="0.17" height="0.318" transform="translate(0 10.308)" fill="#ff4b55"/>
      <rect id="Rectangle_1405" data-name="Rectangle 1405" width="0.17" height="0.318" transform="translate(0 6.713)" fill="#ff4b55"/>
      <rect id="Rectangle_1406" data-name="Rectangle 1406" width="0.17" height="0.481" transform="translate(1.359 4.715)" fill="#ff4b55"/>
      <rect id="Rectangle_1407" data-name="Rectangle 1407" width="0.17" height="0.477" transform="translate(0 12.144)" fill="#ff4b55"/>
      <path id="Path_7396" data-name="Path 7396" d="M9,251.868v-.242h-.17v.481H9Z" transform="translate(-8.833 -243.197)" fill="#ff4b55"/>
      <rect id="Rectangle_1408" data-name="Rectangle 1408" width="0.17" height="0.477" transform="translate(0 16.54)" fill="#ff4b55"/>
      <rect id="Rectangle_1409" data-name="Rectangle 1409" width="0.17" height="0.477" transform="translate(2.719 16.54)" fill="#ff4b55"/>
      <rect id="Rectangle_1410" data-name="Rectangle 1410" width="0.17" height="0.477" transform="translate(0 14.223)" fill="#ff4b55"/>
      <rect id="Rectangle_1411" data-name="Rectangle 1411" width="0.17" height="0.477" transform="translate(1.359 16.54)" fill="#ff4b55"/>
      <path id="Path_7397" data-name="Path 7397" d="M51.024,157.151v.239h-.084v.242h-.086v.318h.086v.239h.084v.239h.256v-.239h.085v-.239h.084v-.318h-.084v-.242H51.28v-.239Zm.256.719h-.086v.159h-.086v-.159h-.085v-.163h.085v-.156h.086v.156h.086v.163Z" transform="translate(-48.563 -153.875)" fill="#ff4b55"/>
      <rect id="Rectangle_1412" data-name="Rectangle 1412" width="0.17" height="0.477" transform="translate(2.719 0.322)" fill="#ff4b55"/>
      <rect id="Rectangle_1413" data-name="Rectangle 1413" width="0.17" height="0.477" transform="translate(0 0.322)" fill="#ff4b55"/>
      <rect id="Rectangle_1414" data-name="Rectangle 1414" width="0.17" height="0.481" transform="translate(2.719 4.715)" fill="#ff4b55"/>
      <rect id="Rectangle_1415" data-name="Rectangle 1415" width="0.17" height="0.477" transform="translate(2.719 2.639)" fill="#ff4b55"/>
      <rect id="Rectangle_1416" data-name="Rectangle 1416" width="0.17" height="0.477" transform="translate(1.359 0.322)" fill="#ff4b55"/>
      <rect id="Rectangle_1417" data-name="Rectangle 1417" width="0.169" height="0.398" transform="translate(0.681 15.341)" fill="#ff4b55"/>
      <path id="Path_7398" data-name="Path 7398" d="M26.137,251.868v-.242h-.17v.481h.17Z" transform="translate(-25.032 -243.197)" fill="#ff4b55"/>
      <path id="Path_7399" data-name="Path 7399" d="M10.874,97.1v.4H10.7v.4h-.17v.4h-.171v.4h-.17v-.4h-.17v-.4H9.853v-.4H9.684v-.4h-.17v.4h-.17v.4H9.174v.4H9v.4h-.17v.4H9v.4h.171v.4h.169v.4h.17v.4h.169v-.4h.171v-.4h.169v-.4h.17v-.4h.17v.4h.171v.4H10.7v.4h.171v.4h.17v-.4h.169v-.4h.17v-.4h.169v-.4h.17v-.4h-.169v-.4h-.17v-.4h-.17v-.4h-.169v-.4Zm-.852,2H9.853v.4H9.682v.4H9.513v-.4h-.17v-.4H9.174v-.4h.169v-.4h.17v-.4h.169v.4h.171v.4h.169v.4Zm1.191-.8v.4h.17v.4h-.17v.4h-.169v.4h-.17v-.4H10.7v-.4h-.17v-.4h.17v-.4h.169v-.4h.17v.4Z" transform="translate(-8.833 -97.103)" fill="#ff4b55"/>
      <rect id="Rectangle_1418" data-name="Rectangle 1418" width="0.17" height="0.398" transform="translate(1.359 7.831)" fill="#ff4b55"/>
      <rect id="Rectangle_1419" data-name="Rectangle 1419" width="0.17" height="0.398" transform="translate(1.359 9.11)" fill="#ff4b55"/>
      <path id="Path_7400" data-name="Path 7400" d="M41.55,251.865v.242h.169v-.481H41.55Z" transform="translate(-39.765 -243.197)" fill="#ff4b55"/>
      <path id="Path_7401" data-name="Path 7401" d="M10.7,351.815v.4h.169v.4h.17v-.4h.169v-.4h.17v-.4h.17v-.4h.169v-.4h-.17v-.4h-.169v-.4h-.17v-.4h-.169v-.4h-.17v.4H10.7v.4h-.169v.4h-.171v.4h-.17v-.4h-.17v-.4H9.853v-.4H9.682v-.4H9.514v.4h-.17v.4H9.175v.4H9v.4h-.17v.4H9v.4h.171v.4h.169v.4h.17v.4h.17v-.4h.169v-.4h.169v-.4h.17v-.4h.17v.4h.171v.4Zm-.682-.8H9.853v.4H9.682v.4H9.513v-.4h-.17v-.4H9.174v-.4h.169v-.4h.17v-.4h.169v.4h.171v.4h.169v.4Zm.512-.4h.17v-.4h.169v-.4h.17v.4h.169v.4h.17v.4h-.17v.4h-.169v.4h-.17v-.4H10.7v-.4h-.17Z" transform="translate(-8.833 -335.275)" fill="#ff4b55"/>
      <path id="Path_7402" data-name="Path 7402" d="M29.6,246.648h-.086v.121h-.17v-.121H29.26v-.159h-.17v.239h.084v.121h.087v.318h-.087v.121H29.09v.239h.17v-.159h.084v-.118h.17v.118H29.6v.159h.169v-.239h-.084v-.121H29.6v-.318h.086v-.121h.084v-.239H29.6Z" transform="translate(-27.985 -238.34)" fill="#ff4b55"/>
      <rect id="Rectangle_1420" data-name="Rectangle 1420" width="0.17" height="0.401" transform="translate(2.041 1.598)" fill="#ff4b55"/>
      <rect id="Rectangle_1421" data-name="Rectangle 1421" width="0.17" height="0.398" transform="translate(2.041 15.341)" fill="#ff4b55"/>
      <path id="Path_7403" data-name="Path 7403" d="M9.258,332.731v-.239h.086v-.239h.083v-.322H9.343v-.239H9.258v-.239H9v.239H8.919v.239H8.833v.322h.086v.239H9v.239ZM9,332.012h.086v-.159h.086v.159h.083v.163H9.174v.159H9.089v-.159H9Z" transform="translate(-8.833 -318.671)" fill="#ff4b55"/>
      <rect id="Rectangle_1422" data-name="Rectangle 1422" width="0.169" height="0.401" transform="translate(0.681 1.598)" fill="#ff4b55"/>
      <rect id="Rectangle_1423" data-name="Rectangle 1423" width="0.17" height="0.477" transform="translate(2.719 14.223)" fill="#ff4b55"/>
      <path id="Path_7404" data-name="Path 7404" d="M26.818,332.731v-.239H26.9v-.239h.083v-.322H26.9v-.239h-.086v-.239h-.255v.239h-.17v-.239h-.254v.239h-.085v.239h-.086v.322h.086v.239h.085v.239h.254v-.239h.17v.239Zm-.425-.557h-.084v.159h-.087v-.159h-.084v-.163h.084v-.159h.087v.159h.084Zm.17-.163h.086v-.159h.086v.159h.084v.163h-.084v.159h-.086v-.159h-.086Z" transform="translate(-25.033 -318.671)" fill="#ff4b55"/>
      <rect id="Rectangle_1424" data-name="Rectangle 1424" width="0.17" height="0.477" transform="translate(1.359 14.223)" fill="#ff4b55"/>
      <rect id="Rectangle_1425" data-name="Rectangle 1425" width="0.17" height="0.477" transform="translate(1.359 12.144)" fill="#ff4b55"/>
      <rect id="Rectangle_1426" data-name="Rectangle 1426" width="0.17" height="0.318" transform="translate(2.719 10.308)" fill="#ff4b55"/>
      <path id="Path_7405" data-name="Path 7405" d="M51.28,332.79v-.239h.085v-.239h.084v-.318h-.084v-.242H51.28v-.235h-.256v.235h-.084v.242h-.086v.318h.086v.239h.084v.239Zm-.256-.716h.085v-.159h.086v.159h.086v.159h-.086v.163h-.086v-.163h-.085Z" transform="translate(-48.563 -318.73)" fill="#ff4b55"/>
      <path id="Path_7406" data-name="Path 7406" d="M58.685,251.865v.242h.17v-.481h-.17Z" transform="translate(-55.966 -243.197)" fill="#ff4b55"/>
      <rect id="Rectangle_1427" data-name="Rectangle 1427" width="0.17" height="0.318" transform="translate(2.719 6.713)" fill="#ff4b55"/>
      <path id="Path_7407" data-name="Path 7407" d="M11.722,176.31h-.17v-.4h-.169v-.4h-.17v-.4h-.169v-.4h-.17v.4H10.7v.4h-.169v.4h-.171v.4h-.17v-.4h-.17v-.4H9.853v-.4H9.682v-.4H9.514v.4h-.17v.4h-.17v.4H9v.4h-.17v.4H9v.4h.169v.4h.17v.4h.17v-.4h.169v-.4h.171v-.4H9.682v-.481h.171v.322h.169v.64h.087v.394l-.255,0v.318H9.682v.239H9.514v.4h-.17v-.4h-.17v-.239H9v-.239h-.17v.719H9v.322h.169v.277h.17v.318h-.17v.284H9v.318h-.17v.719H9v-.242h.169v-.239h.17v-.4h.17v.4h.169v.239h.171v.322l.255,0v.394h-.087v.64H9.853v.322H9.682v-.484h.171v-.4H9.682v-.4H9.513v-.4h-.17v.4h-.17v.4H9v.4h-.17v.4H9v.4h.171v.4h.169v.4h.17v.4h.169v-.4h.171v-.4h.169v-.4h.17v-.4h.17v.4h.171v.4h.17v.4h.169v.4h.17v-.4h.169v-.4h.17v-.4h.169v-.4h.17v-.4h-.17v-.4h-.169v-.4h-.17v-.4h-.169v.4h-.17v.4H10.7v.4h.171v.484H10.7v-.322h-.169v-.64h-.086v-.4H10.7v-.322h.169v-.239h.17v-.4h.169v.4h.17v.239h.17v.242h.169v-.719h-.169v-.318h-.17v-.284h-.17v-.318h.17v-.277h.17v-.322h.169v-.719h-.169v.239h-.17v.239h-.17v.4h-.169v-.4h-.17v-.239H10.7v-.318h-.256v-.4h.086v-.64H10.7v-.322h.171v.481H10.7v.4h.171v.4h.17v.4h.169v-.4h.17v-.4h.169v-.4h.17v-.4ZM10.7,178.389v.322h.169v.277h.17v.318h-.17v.284H10.7v.318h-.256v.377h-.086v.18h-.17v-.18h-.084v-.377H9.853v-.318H9.682v-.284H9.514v-.318h.169v-.277h.171v-.322h.255v-.377h.084v-.183h.17v.18h.086v.38H10.7Z" transform="translate(-8.833 -170.478)" fill="#ff4b55"/>
    </g>
  </g>
</svg>
