<svg xmlns="http://www.w3.org/2000/svg" width="27.829" height="18.234" viewBox="0 0 27.829 18.234">
  <g id="belgium" transform="translate(0)">
    <path id="Path_7417" data-name="Path 7417" d="M25.752,106.484H2.082A2.082,2.082,0,0,1,0,104.4V90.332A2.082,2.082,0,0,1,2.082,88.25H25.747a2.082,2.082,0,0,1,2.082,2.082V104.4A2.074,2.074,0,0,1,25.752,106.484Z" transform="translate(0 -88.25)" fill="#ffe15a"/>
    <path id="Path_7418" data-name="Path 7418" d="M2.082,88.25A2.082,2.082,0,0,0,0,90.332V104.4a2.082,2.082,0,0,0,2.082,2.082H9.275V88.25Z" transform="translate(0 -88.25)" fill="#464655"/>
    <path id="Path_7419" data-name="Path 7419" d="M348.5,88.25h-7.2v18.234h7.192a2.082,2.082,0,0,0,2.082-2.082V90.332A2.074,2.074,0,0,0,348.5,88.25Z" transform="translate(-322.745 -88.25)" fill="#ff4b55"/>
  </g>
</svg>
