<svg xmlns="http://www.w3.org/2000/svg" width="27.856" height="18.245" viewBox="0 0 27.856 18.245">
  <g id="greece" transform="translate(0)">
    <path id="Path_7422" data-name="Path 7422" d="M27.834,90.428A2.086,2.086,0,0,0,25.752,88.4H2.082A2.09,2.09,0,0,0,0,90.488v14.129H0a1.994,1.994,0,0,0,.179.788h0a.433.433,0,0,0,.043.087h0c.016.027.027.054.043.087v.005l.049.082a.005.005,0,0,0,.005.005c.016.027.033.049.049.076l.005.005a.349.349,0,0,0,.054.071c0,.005.005.005.005.011.016.022.038.043.054.065l.011.011c.016.022.038.043.054.065l.011.011a.62.62,0,0,0,.06.06l.011.011c.022.016.038.038.06.054l.016.016c.022.016.038.033.06.049a.075.075,0,0,0,.022.016.414.414,0,0,0,.06.043c.005.005.016.011.022.016a.365.365,0,0,0,.06.038c.011.005.016.011.027.016s.038.027.06.038a.119.119,0,0,1,.027.016c.016.011.038.022.054.033l.033.016a.254.254,0,0,0,.054.027.264.264,0,0,0,.038.016c.016.011.038.016.054.027l.038.016c.016.005.038.016.054.022l.043.016c.016.005.033.011.054.016a.159.159,0,0,0,.049.011l.049.016c.016.005.033.005.049.011s.033.005.049.011.038.005.054.011.033.005.049.011a.223.223,0,0,0,.06.005c.016,0,.027.005.043.005s.043.005.071.005a.106.106,0,0,1,.038.005H25.866a.106.106,0,0,0,.038-.005c.022,0,.043-.005.071-.005s.027-.005.043-.005.038-.005.06-.005a.159.159,0,0,0,.049-.011c.016-.005.038-.005.054-.011s.033-.005.049-.011.033-.005.049-.011l.049-.016a.159.159,0,0,1,.049-.011c.016-.005.033-.011.054-.016l.043-.016c.016-.005.038-.016.054-.022l.038-.016a.253.253,0,0,0,.054-.027.265.265,0,0,1,.038-.016c.016-.011.038-.016.054-.027l.033-.016a.478.478,0,0,0,.054-.033.119.119,0,0,0,.027-.016.366.366,0,0,0,.06-.038c.011-.005.016-.011.027-.016s.038-.027.06-.038c.005-.005.016-.011.022-.016l.06-.043a.075.075,0,0,1,.022-.016c.022-.016.038-.033.06-.049l.016-.016c.022-.016.038-.038.06-.054.005-.005.011-.011.016-.011l.06-.06.011-.011a.576.576,0,0,0,.054-.065l.011-.011c.016-.022.038-.043.054-.065,0-.005.005-.005.005-.011l.054-.071.005-.005c.016-.027.033-.049.049-.076a.005.005,0,0,1,.005-.005l.049-.082v-.005a.433.433,0,0,0,.043-.087h0c.016-.027.027-.06.043-.087h0a2.038,2.038,0,0,0,.179-.788h0V90.488A.065.065,0,0,1,27.834,90.428Z" transform="translate(0 -88.4)" fill="#f5f5f5"/>
    <path id="Path_7423" data-name="Path 7423" d="M0,100.561H27.834v2.028H0Zm.179,4.844h0a.433.433,0,0,0,.043.087h0c.016.027.027.054.043.087v.005l.049.082a.005.005,0,0,0,.005.005c.016.027.033.049.049.076l.005.005a.349.349,0,0,0,.054.071c0,.005.005.005.005.011.016.022.038.043.054.065l.011.011c.016.022.038.043.054.065l.011.011a.621.621,0,0,0,.06.06l.011.011c.022.016.038.038.06.054l.016.016c.022.016.038.033.06.049a.075.075,0,0,0,.022.016.415.415,0,0,0,.06.043c.005.005.016.011.022.016a.365.365,0,0,0,.06.038c.011.005.016.011.027.016s.038.027.06.038a.119.119,0,0,1,.027.016c.016.011.038.022.054.033l.033.016a.253.253,0,0,0,.054.027.265.265,0,0,0,.038.016c.016.011.038.016.054.027l.038.016c.016.005.038.016.054.022l.043.016c.016.005.033.011.054.016a.159.159,0,0,0,.049.011l.049.016c.016.005.033.005.049.011s.033.005.049.011.038.005.054.011.033.005.049.011a.223.223,0,0,0,.06.005c.016,0,.027.005.043.005s.043.005.071.005a.106.106,0,0,1,.038.005H25.866a.106.106,0,0,0,.038-.005c.022,0,.043-.005.071-.005s.027-.005.043-.005.038-.005.06-.005a.159.159,0,0,0,.049-.011c.016-.005.038-.005.054-.011s.033-.005.049-.011.033-.005.049-.011l.049-.016a.159.159,0,0,1,.049-.011c.016-.005.033-.011.054-.016l.043-.016c.016-.005.038-.016.054-.022l.038-.016a.253.253,0,0,0,.054-.027.265.265,0,0,1,.038-.016c.016-.011.038-.016.054-.027l.033-.016a.478.478,0,0,0,.054-.033.119.119,0,0,0,.027-.016.365.365,0,0,0,.06-.038c.011-.005.016-.011.027-.016s.038-.027.06-.038c.005-.005.016-.011.022-.016l.06-.043a.075.075,0,0,1,.022-.016c.022-.016.038-.033.06-.049l.016-.016c.022-.016.038-.038.06-.054.005-.005.011-.011.016-.011l.06-.06.011-.011a.575.575,0,0,0,.054-.065l.011-.011c.016-.022.038-.043.054-.065,0-.005.005-.005.005-.011l.054-.071.005-.005c.016-.027.033-.049.049-.076a.005.005,0,0,1,.005-.005l.049-.082v-.005a.433.433,0,0,0,.043-.087h0c.016-.027.027-.06.043-.087h0a2.038,2.038,0,0,0,.179-.788H0A2.141,2.141,0,0,0,.179,105.405ZM9.6,92.456v2.028H5.817v4.05H27.834V96.506H9.6V94.478H27.834V92.45H9.6ZM3.784,94.483H0v4.056H3.784Zm24.051-4.056A2.086,2.086,0,0,0,25.752,88.4H5.812v4.05H9.6V90.422H27.834ZM3.784,88.405h-1.7A2.082,2.082,0,0,0,0,90.488v1.968H3.784Z" transform="translate(0 -88.4)" fill="#41479b"/>
  </g>
</svg>
