<svg id="briefcase" xmlns="http://www.w3.org/2000/svg" width="28.037" height="24.738" viewBox="0 0 28.037 24.738">
  <path id="Path_42" data-name="Path 42" d="M27.216,35.074H19.789V33.442a3.32,3.32,0,0,0-3.317-3.317H11.565a3.32,3.32,0,0,0-3.317,3.317v1.632H.821A.821.821,0,0,0,0,35.9V50.817a4.05,4.05,0,0,0,4.045,4.045H23.992a4.05,4.05,0,0,0,4.045-4.045V35.9A.821.821,0,0,0,27.216,35.074ZM15.882,45.793a1.864,1.864,0,0,1-3.727,0V43.929h3.727Zm.821-3.507h-5.37a.821.821,0,0,0-.821.821V44.6c-4.777-1.037-8.357-4.135-8.818-7.883H26.343c-.461,3.748-4.041,6.847-8.818,7.883V43.108a.821.821,0,0,0-.821-.821ZM9.891,33.442a1.676,1.676,0,0,1,1.674-1.674h4.907a1.676,1.676,0,0,1,1.674,1.674v1.632H9.891V33.442Zm16.5,17.376a2.4,2.4,0,0,1-2.4,2.4H4.045a2.4,2.4,0,0,1-2.4-2.4V40.953a11.53,11.53,0,0,0,2.551,2.6,15.475,15.475,0,0,0,6.353,2.734,3.506,3.506,0,0,0,6.943,0,15.475,15.475,0,0,0,6.353-2.734,11.531,11.531,0,0,0,2.551-2.6Z" transform="translate(0 -30.125)" fill="#ffc91e"/>
</svg>
