<svg xmlns="http://www.w3.org/2000/svg" width="31.369" height="30.904" viewBox="0 0 31.369 30.904">
  <g id="favorites" transform="translate(0.253 0.25)">
    <g id="Group_7" data-name="Group 7" transform="translate(1.783 0)">
      <g id="Group_6" data-name="Group 6">
        <path id="Path_43" data-name="Path 43" d="M56.256,15.739a2.035,2.035,0,0,0-1.128-3.472l-6.753-.981a.407.407,0,0,1-.306-.223l-3.02-6.119a2.035,2.035,0,0,0-3.65,0l-3.02,6.119a.407.407,0,0,1-.307.223l-6.753.981a2.035,2.035,0,0,0-1.128,3.472L35.077,20.5a.407.407,0,0,1,.117.36l-1.154,6.726a2.035,2.035,0,0,0,2.953,2.146l6.04-3.175a.407.407,0,0,1,.379,0l6.04,3.175a2.035,2.035,0,0,0,2.953-2.146l-1.154-6.726a.407.407,0,0,1,.117-.36Zm-6.608,5.4L50.8,27.864a.407.407,0,0,1-.591.429l-6.04-3.175a2.035,2.035,0,0,0-1.894,0l-6.04,3.175a.407.407,0,0,1-.591-.429L36.8,21.138a2.035,2.035,0,0,0-.585-1.8l-4.887-4.763a.407.407,0,0,1,.226-.694l6.753-.981a2.035,2.035,0,0,0,1.533-1.113l3.02-6.119a.407.407,0,0,1,.73,0h0l3.02,6.119A2.035,2.035,0,0,0,48.141,12.9l6.753.981a.407.407,0,0,1,.226.694l-4.887,4.763A2.035,2.035,0,0,0,49.648,21.138Z" transform="translate(-29.574 -3.81)" fill="#ffc91e" stroke="#ffc91e" stroke-width="0.5"/>
      </g>
    </g>
    <g id="Group_9" data-name="Group 9" transform="translate(22.786 0.979)">
      <g id="Group_8" data-name="Group 8" transform="translate(0 0)">
        <path id="Path_44" data-name="Path 44" d="M380.158,20.2a.814.814,0,0,0-1.137.18l-.864,1.189a.814.814,0,1,0,1.317.957l.864-1.189A.814.814,0,0,0,380.158,20.2Z" transform="translate(-378.001 -20.045)" fill="#ffc91e" stroke="#ffc91e" stroke-width="0.5"/>
      </g>
    </g>
    <g id="Group_11" data-name="Group 11" transform="translate(5.581 0.974)">
      <g id="Group_10" data-name="Group 10">
        <path id="Path_45" data-name="Path 45" d="M94.927,21.491,94.063,20.3a.814.814,0,0,0-1.317.957l.864,1.189a.814.814,0,1,0,1.317-.957Z" transform="translate(-92.59 -19.966)" fill="#ffc91e" stroke="#ffc91e" stroke-width="0.5"/>
      </g>
    </g>
    <g id="Group_13" data-name="Group 13" transform="translate(0 17.703)">
      <g id="Group_12" data-name="Group 12">
        <path id="Path_46" data-name="Path 46" d="M2.987,298.056a.814.814,0,0,0-1.026-.523l-1.4.454a.814.814,0,1,0,.5,1.549l1.4-.454A.814.814,0,0,0,2.987,298.056Z" transform="translate(0 -297.493)" fill="#ffc91e" stroke="#ffc91e" stroke-width="0.5"/>
      </g>
    </g>
    <g id="Group_15" data-name="Group 15" transform="translate(14.618 27.305)">
      <g id="Group_14" data-name="Group 14">
        <path id="Path_47" data-name="Path 47" d="M243.313,456.786a.814.814,0,0,0-.814.814v1.47a.814.814,0,1,0,1.628,0V457.6A.814.814,0,0,0,243.313,456.786Z" transform="translate(-242.499 -456.786)" fill="#ffc91e" stroke="#ffc91e" stroke-width="0.5"/>
      </g>
    </g>
    <g id="Group_17" data-name="Group 17" transform="translate(27.836 17.704)">
      <g id="Group_16" data-name="Group 16">
        <path id="Path_48" data-name="Path 48" d="M464.247,298.007l-1.4-.454a.814.814,0,0,0-.5,1.549l1.4.454a.814.814,0,0,0,.5-1.549Z" transform="translate(-461.783 -297.513)" fill="#ffc91e" stroke="#ffc91e" stroke-width="0.5"/>
      </g>
    </g>
  </g>
</svg>
