<svg id="group" xmlns="http://www.w3.org/2000/svg" width="30.534" height="25.319" viewBox="0 0 30.534 25.319">
  <path id="Union_3" data-name="Union 3" d="M2.684,25.319A2.687,2.687,0,0,1,0,22.635V17.857a4.478,4.478,0,0,1,4.473-4.473H7.462a4.469,4.469,0,0,1,1.175.158,4.477,4.477,0,0,1,3.988-2.452h5.284A4.477,4.477,0,0,1,21.9,13.542a4.474,4.474,0,0,1,1.176-.158h2.989a4.478,4.478,0,0,1,4.473,4.473v4.779a2.687,2.687,0,0,1-2.683,2.684ZM22.371,15.267c.006.1.011.2.011.3V23.53h5.47a.9.9,0,0,0,.894-.895V17.857a2.686,2.686,0,0,0-2.684-2.683H23.073A2.689,2.689,0,0,0,22.371,15.267Zm-12.429.3V23.53h10.65V15.563a2.687,2.687,0,0,0-2.684-2.684H12.625A2.687,2.687,0,0,0,9.942,15.563ZM1.789,17.857v4.779a.9.9,0,0,0,.895.895H8.153V15.563c0-.1,0-.2.011-.3a2.648,2.648,0,0,0-.7-.094H4.473A2.687,2.687,0,0,0,1.789,17.857Zm18.8-8.946a3.975,3.975,0,1,1,3.975,3.975A3.979,3.979,0,0,1,20.593,8.911Zm1.789,0a2.185,2.185,0,1,0,2.186-2.186A2.188,2.188,0,0,0,22.382,8.911Zm-20.389,0a3.975,3.975,0,1,1,3.975,3.975A3.979,3.979,0,0,1,1.993,8.911Zm1.789,0A2.185,2.185,0,1,0,5.968,6.725,2.188,2.188,0,0,0,3.782,8.911Zm6.175-3.6a5.31,5.31,0,1,1,5.31,5.31A5.315,5.315,0,0,1,9.957,5.31Zm1.789,0a3.521,3.521,0,1,0,3.521-3.521A3.525,3.525,0,0,0,11.746,5.31Z" transform="translate(0 0)" fill="#ffc91e"/>
</svg>
