<svg xmlns="http://www.w3.org/2000/svg" width="13.209" height="13.22" viewBox="0 0 13.209 13.22">
  <g id="instagram_2_" data-name="instagram (2)" transform="translate(-3.133 -3.13)">
    <path id="Path_33" data-name="Path 33" d="M9.738,3.137c-2.705,0-5.274-.241-6.255,2.278a13,13,0,0,0-.346,4.325,13.779,13.779,0,0,0,.346,4.324c.979,2.52,3.569,2.278,6.254,2.278,2.591,0,5.261.27,6.255-2.278a12.981,12.981,0,0,0,.346-4.324c0-2.579.142-4.245-1.109-5.495-1.267-1.267-2.979-1.108-5.494-1.108Zm-.592,1.19c5.643-.009,6.361-.636,5.965,8.078-.141,3.082-2.488,2.744-5.372,2.744-5.26,0-5.411-.15-5.411-5.413,0-5.323.417-5.407,4.819-5.411Zm4.116,1.1a.792.792,0,1,0,.792.792A.792.792,0,0,0,13.262,5.423Zm-3.524.926a3.39,3.39,0,1,0,3.389,3.391A3.39,3.39,0,0,0,9.738,6.349Zm0,1.19a2.2,2.2,0,0,1,0,4.4A2.2,2.2,0,0,1,9.738,7.539Z" fill="#fff"/>
  </g>
</svg>
