<svg xmlns="http://www.w3.org/2000/svg" width="27.834" height="18.236" viewBox="0 0 27.834 18.236">
  <g id="kazakhstan" transform="translate(0)">
    <path id="Path_7426" data-name="Path 7426" d="M25.75,88.275H2.085A2.085,2.085,0,0,0,0,90.36v14.067a2.085,2.085,0,0,0,2.085,2.085H25.75a2.085,2.085,0,0,0,2.085-2.085V90.36A2.085,2.085,0,0,0,25.75,88.275Z" transform="translate(0 -88.275)" fill="#82c3d2"/>
    <g id="Group_2121" data-name="Group 2121" transform="translate(1.44 1.333)">
      <path id="Path_7427" data-name="Path 7427" d="M28.277,113.638c-.043-.184-.054-.252.028-.334a.1.1,0,0,0-.146-.146.486.486,0,0,0-.084.524.284.284,0,0,0-.316.463.1.1,0,1,0,.174-.111c-.049-.078-.051-.126-.037-.143a.116.116,0,0,1,.12-.013.172.172,0,0,1,.114.177A.307.307,0,0,1,28,114.3a.315.315,0,0,1-.283.045.322.322,0,0,1-.209-.316.766.766,0,0,1,.064-.307c.007-.014.164-.34.2-.462a.361.361,0,0,0-.057-.412.258.258,0,0,0-.277-.044.239.239,0,0,0-.038.024.237.237,0,0,0-.038-.024.258.258,0,0,0-.277.044.361.361,0,0,0-.057.412c.041.122.2.448.2.459a.769.769,0,0,1,.066.31.322.322,0,0,1-.209.316.314.314,0,0,1-.283-.045.307.307,0,0,1-.126-.249.172.172,0,0,1,.114-.177.116.116,0,0,1,.12.013c.014.018.012.065-.037.143a.1.1,0,1,0,.174.111.284.284,0,0,0-.316-.463.486.486,0,0,0-.084-.524.1.1,0,0,0-.146.146c.082.082.072.15.028.334a1.722,1.722,0,0,0-.059.417.515.515,0,0,0,.106.309h0a.1.1,0,0,0,0,.206h0a.515.515,0,0,0-.106.309,1.729,1.729,0,0,0,.058.417c.043.184.054.252-.028.334a.1.1,0,0,0,.146.146.486.486,0,0,0,.084-.524.284.284,0,0,0,.316-.463.1.1,0,1,0-.174.111c.049.078.051.126.037.143a.117.117,0,0,1-.12.013.172.172,0,0,1-.114-.177.306.306,0,0,1,.126-.249.314.314,0,0,1,.283-.045.322.322,0,0,1,.209.316.769.769,0,0,1-.066.31l-.675,1.518a.964.964,0,0,0-.084.394.561.561,0,0,1,0,.868.965.965,0,0,0,.084.394l.675,1.518a.769.769,0,0,1,.066.31.322.322,0,0,1-.209.316.313.313,0,0,1-.283-.045.307.307,0,0,1-.126-.249.172.172,0,0,1,.114-.177.117.117,0,0,1,.12.013c.014.018.012.065-.037.143a.1.1,0,1,0,.174.111.284.284,0,0,0-.316-.463.486.486,0,0,0-.084-.524.1.1,0,0,0-.146.146c.082.082.072.15.028.334a1.727,1.727,0,0,0-.058.417.515.515,0,0,0,.106.309h0a.1.1,0,1,0,0,.206h0a.515.515,0,0,0-.106.309,1.729,1.729,0,0,0,.058.417c.043.184.054.252-.028.334a.1.1,0,0,0,.146.146.486.486,0,0,0,.084-.524.284.284,0,0,0,.316-.463.1.1,0,1,0-.174.111c.049.078.051.126.037.143a.117.117,0,0,1-.12.013.172.172,0,0,1-.114-.177.306.306,0,0,1,.126-.249.314.314,0,0,1,.283-.045.322.322,0,0,1,.209.316.769.769,0,0,1-.066.31l-.675,1.518a.964.964,0,0,0-.084.394.561.561,0,0,1,0,.868.965.965,0,0,0,.084.394l.675,1.518a.77.77,0,0,1,.066.31.322.322,0,0,1-.209.316.314.314,0,0,1-.283-.045.307.307,0,0,1-.126-.249.172.172,0,0,1,.114-.177.117.117,0,0,1,.12.013c.014.018.012.065-.037.143a.1.1,0,1,0,.174.111.284.284,0,0,0-.316-.463.486.486,0,0,0-.084-.524.1.1,0,0,0-.146.146c.082.082.072.15.028.334a1.727,1.727,0,0,0-.058.417.514.514,0,0,1,0,.824,1.729,1.729,0,0,0,.058.417c.043.184.054.252-.028.334a.1.1,0,0,0,.146.146.486.486,0,0,0,.084-.524.284.284,0,0,0,.316-.463.1.1,0,1,0-.174.111c.049.078.051.126.037.143a.117.117,0,0,1-.12.013.172.172,0,0,1-.114-.177.307.307,0,0,1,.126-.249.315.315,0,0,1,.283-.045.322.322,0,0,1,.209.316.766.766,0,0,1-.064.307c-.007.014-.164.34-.2.462a.361.361,0,0,0,.057.412.254.254,0,0,0,.171.066.264.264,0,0,0,.105-.022.24.24,0,0,0,.038-.024.239.239,0,0,0,.038.024.263.263,0,0,0,.105.022.255.255,0,0,0,.171-.066.361.361,0,0,0,.057-.412c-.041-.122-.2-.448-.2-.459a.769.769,0,0,1-.066-.31.322.322,0,0,1,.209-.316.314.314,0,0,1,.283.045.307.307,0,0,1,.126.249.172.172,0,0,1-.114.177.117.117,0,0,1-.12-.013c-.014-.018-.012-.065.037-.143a.1.1,0,1,0-.174-.111.284.284,0,0,0,.316.463.486.486,0,0,0,.084.524.1.1,0,0,0,.146-.146c-.082-.082-.072-.15-.028-.334a1.729,1.729,0,0,0,.058-.417.514.514,0,0,1,0-.824,1.729,1.729,0,0,0-.058-.417c-.043-.184-.054-.252.028-.334a.1.1,0,1,0-.146-.146.486.486,0,0,0-.084.524.284.284,0,0,0-.316.463.1.1,0,1,0,.174-.111c-.049-.078-.051-.126-.037-.143a.117.117,0,0,1,.12-.013.172.172,0,0,1,.114.177.306.306,0,0,1-.126.249.314.314,0,0,1-.283.045.322.322,0,0,1-.209-.316.769.769,0,0,1,.066-.31l.675-1.518a.964.964,0,0,0,.084-.394.561.561,0,0,1,0-.868.965.965,0,0,0-.084-.394l-.675-1.518a.769.769,0,0,1-.066-.31.322.322,0,0,1,.209-.316.315.315,0,0,1,.283.045.307.307,0,0,1,.126.249.172.172,0,0,1-.114.177.116.116,0,0,1-.12-.013c-.014-.018-.012-.065.037-.143a.1.1,0,1,0-.174-.111.284.284,0,0,0,.316.463.486.486,0,0,0,.084.524.1.1,0,0,0,.146-.146c-.082-.082-.072-.15-.028-.334a1.729,1.729,0,0,0,.058-.417.515.515,0,0,0-.106-.309h0a.1.1,0,0,0,0-.206h0a.515.515,0,0,0,.106-.309,1.729,1.729,0,0,0-.058-.417c-.043-.184-.054-.252.028-.334a.1.1,0,0,0-.146-.146.486.486,0,0,0-.084.524.284.284,0,0,0-.316.463.1.1,0,1,0,.174-.111c-.049-.078-.051-.126-.037-.143a.117.117,0,0,1,.12-.013.172.172,0,0,1,.114.177.306.306,0,0,1-.126.249.315.315,0,0,1-.283.045.322.322,0,0,1-.209-.316.768.768,0,0,1,.066-.31l.675-1.518a.964.964,0,0,0,.084-.394.561.561,0,0,1,0-.868.965.965,0,0,0-.084-.394l-.675-1.518a.769.769,0,0,1-.066-.31.322.322,0,0,1,.209-.316.315.315,0,0,1,.283.045.307.307,0,0,1,.126.249.172.172,0,0,1-.114.177.117.117,0,0,1-.12-.013c-.014-.018-.012-.065.037-.143a.1.1,0,1,0-.174-.111.284.284,0,0,0,.316.463.486.486,0,0,0,.084.524.1.1,0,1,0,.146-.146c-.082-.082-.072-.15-.028-.334a1.729,1.729,0,0,0,.058-.417.515.515,0,0,0-.106-.309h0a.1.1,0,1,0,0-.206h0a.515.515,0,0,0,.106-.309A1.742,1.742,0,0,0,28.277,113.638Zm-1.045-.439c-.037-.11-.024-.172,0-.194a.052.052,0,0,1,.055-.007.027.027,0,0,1,.019.028.1.1,0,1,0,.206,0A.027.027,0,0,1,27.53,113a.052.052,0,0,1,.055.007c.024.022.037.085,0,.194-.027.08-.123.287-.177.4C27.356,113.489,27.258,113.279,27.231,113.2Zm.177,4.251a.108.108,0,0,1,0,.216.108.108,0,0,1,0-.216Zm0,6.181a.108.108,0,0,1,0,.216.108.108,0,0,1,0-.216Zm.177,4.467c.037.11.024.172,0,.194a.053.053,0,0,1-.055.007.027.027,0,0,1-.019-.028.1.1,0,1,0-.206,0,.027.027,0,0,1-.019.028.052.052,0,0,1-.055-.007c-.024-.022-.037-.085,0-.194.027-.08.123-.287.177-.4C27.461,127.807,27.558,128.017,27.585,128.1Zm-.074-1.268a.512.512,0,0,0-.1.108.108.108,0,0,1,0-.215A.507.507,0,0,0,27.511,126.829Zm.552-2.346-.655,1.474-.655-1.474a.769.769,0,0,1-.066-.31.322.322,0,0,1,.209-.316.315.315,0,0,1,.283.045.307.307,0,0,1,.126.249.172.172,0,0,1-.114.177.117.117,0,0,1-.12-.013c-.014-.018-.012-.065.037-.143a.1.1,0,1,0-.174-.111.285.285,0,0,0,.324.461.363.363,0,0,0,.046-.02v.261h0a.1.1,0,0,0-.206.006.238.238,0,0,0,.206.22v.192a.1.1,0,1,0,.206,0v-.192a.238.238,0,0,0,.206-.22.106.106,0,0,0-.1-.106.1.1,0,0,0-.1.1h0v-.26a.371.371,0,0,0,.046.02.285.285,0,0,0,.324-.461.1.1,0,1,0-.174.111c.049.078.051.126.037.143a.117.117,0,0,1-.12.013.172.172,0,0,1-.114-.177.307.307,0,0,1,.126-.249.314.314,0,0,1,.283-.045.322.322,0,0,1,.209.316A.767.767,0,0,1,28.063,124.483Zm0-1.489a.769.769,0,0,1,.066.31.322.322,0,0,1-.209.316.314.314,0,0,1-.283-.045.306.306,0,0,1-.126-.249.172.172,0,0,1,.114-.177.117.117,0,0,1,.12.013c.014.018.012.065-.037.143a.1.1,0,1,0,.174.111.285.285,0,0,0-.324-.461.382.382,0,0,0-.046.02v-.261h0a.1.1,0,0,0,.206-.006.238.238,0,0,0-.206-.22V122.3a.1.1,0,0,0-.206,0v.192a.238.238,0,0,0-.206.22.106.106,0,0,0,.1.106.1.1,0,0,0,.1-.1h0v.26a.372.372,0,0,0-.046-.02.285.285,0,0,0-.324.461.1.1,0,1,0,.174-.111c-.049-.078-.051-.126-.037-.143a.117.117,0,0,1,.12-.013.172.172,0,0,1,.114.177.306.306,0,0,1-.126.249.314.314,0,0,1-.283.045.322.322,0,0,1-.209-.316.768.768,0,0,1,.066-.31l.655-1.474Zm-.552-2.346a.511.511,0,0,0-.1.108.108.108,0,0,1,0-.215A.509.509,0,0,0,27.511,120.648Zm.552-2.346-.655,1.474-.655-1.474a.769.769,0,0,1-.066-.31.322.322,0,0,1,.209-.316.315.315,0,0,1,.283.045.307.307,0,0,1,.126.249.172.172,0,0,1-.114.177.116.116,0,0,1-.12-.013c-.014-.018-.012-.065.037-.143a.1.1,0,1,0-.174-.111.285.285,0,0,0,.324.461.372.372,0,0,0,.046-.02v.261h0a.1.1,0,0,0-.206.006.238.238,0,0,0,.206.22V119a.1.1,0,1,0,.206,0v-.192a.238.238,0,0,0,.206-.22.106.106,0,0,0-.1-.106.1.1,0,0,0-.1.1h0v-.26a.363.363,0,0,0,.046.02.285.285,0,0,0,.324-.461.1.1,0,1,0-.174.111c.049.078.051.126.037.143a.116.116,0,0,1-.12.013.172.172,0,0,1-.114-.177.307.307,0,0,1,.126-.249.315.315,0,0,1,.283-.045.322.322,0,0,1,.209.316A.768.768,0,0,1,28.063,118.3Zm0-1.489a.769.769,0,0,1,.066.31.322.322,0,0,1-.209.316.314.314,0,0,1-.283-.045.307.307,0,0,1-.126-.249.172.172,0,0,1,.114-.177.117.117,0,0,1,.12.013c.014.018.012.065-.037.143a.1.1,0,1,0,.174.111.285.285,0,0,0-.324-.461.363.363,0,0,0-.046.02v-.261h0a.1.1,0,0,0,.206-.006.238.238,0,0,0-.206-.22v-.192a.1.1,0,1,0-.206,0v.192a.238.238,0,0,0-.206.22.106.106,0,0,0,.1.106.1.1,0,0,0,.1-.1h0v.26a.362.362,0,0,0-.046-.02.285.285,0,0,0-.324.461.1.1,0,1,0,.174-.111c-.049-.078-.051-.126-.037-.143a.117.117,0,0,1,.12-.013.172.172,0,0,1,.114.177.307.307,0,0,1-.126.249.314.314,0,0,1-.283.045.322.322,0,0,1-.209-.316.769.769,0,0,1,.066-.31l.655-1.474Zm-.758-2.346a.511.511,0,0,0,.1-.108.108.108,0,0,1,0,.215A.5.5,0,0,0,27.305,114.467Z" transform="translate(-26.481 -112.787)" fill="#ffe15a"/>
      <ellipse id="Ellipse_335" data-name="Ellipse 335" cx="2.479" cy="2.479" rx="2.479" ry="2.479" transform="translate(10.8 4.166)" fill="#ffe15a"/>
      <path id="Path_7428" data-name="Path 7428" d="M267.7,167.178a.186.186,0,1,1-.372,0,3.5,3.5,0,0,1,.186-.558A3.5,3.5,0,0,1,267.7,167.178Z" transform="translate(-254.232 -163.693)" fill="#ffe15a"/>
      <path id="Path_7429" data-name="Path 7429" d="M267.326,289.95a.186.186,0,0,1,.372,0,3.5,3.5,0,0,1-.186.558A3.5,3.5,0,0,1,267.326,289.95Z" transform="translate(-254.233 -280.143)" fill="#ffe15a"/>
      <path id="Path_7430" data-name="Path 7430" d="M325.663,231.984a.186.186,0,0,1,0-.372,3.5,3.5,0,0,1,.558.186A3.5,3.5,0,0,1,325.663,231.984Z" transform="translate(-309.222 -225.152)" fill="#ffe15a"/>
      <path id="Path_7431" data-name="Path 7431" d="M202.891,231.613a.186.186,0,0,1,0,.372,3.5,3.5,0,0,1-.558-.186A3.5,3.5,0,0,1,202.891,231.613Z" transform="translate(-192.773 -225.153)" fill="#ffe15a"/>
      <path id="Path_7432" data-name="Path 7432" d="M308.763,187.183a.186.186,0,0,1-.263-.263,3.508,3.508,0,0,1,.526-.263A3.5,3.5,0,0,1,308.763,187.183Z" transform="translate(-293.116 -182.641)" fill="#ffe15a"/>
      <path id="Path_7433" data-name="Path 7433" d="M222.635,272.786a.186.186,0,0,1,.263.263,3.494,3.494,0,0,1-.526.263A3.5,3.5,0,0,1,222.635,272.786Z" transform="translate(-211.723 -264.037)" fill="#ffe15a"/>
      <path id="Path_7434" data-name="Path 7434" d="M308.5,273.048a.186.186,0,1,1,.263-.263,3.5,3.5,0,0,1,.263.526A3.5,3.5,0,0,1,308.5,273.048Z" transform="translate(-293.117 -264.035)" fill="#ffe15a"/>
      <path id="Path_7435" data-name="Path 7435" d="M222.9,186.921a.186.186,0,1,1-.263.263,3.5,3.5,0,0,1-.263-.526A3.5,3.5,0,0,1,222.9,186.921Z" transform="translate(-211.721 -182.642)" fill="#ffe15a"/>
      <path id="Path_7436" data-name="Path 7436" d="M244.951,172.27a.186.186,0,1,1-.344.142,3.5,3.5,0,0,1-.042-.587A3.5,3.5,0,0,1,244.951,172.27Z" transform="translate(-232.71 -168.616)" fill="#ffe15a"/>
      <path id="Path_7437" data-name="Path 7437" d="M289.594,285.595a.186.186,0,0,1,.344-.142,3.5,3.5,0,0,1,.042.587A3.489,3.489,0,0,1,289.594,285.595Z" transform="translate(-275.277 -275.957)" fill="#ffe15a"/>
      <path id="Path_7438" data-name="Path 7438" d="M321.308,209.238a.186.186,0,1,1-.142-.344,3.5,3.5,0,0,1,.587-.042A3.5,3.5,0,0,1,321.308,209.238Z" transform="translate(-305.037 -203.63)" fill="#ffe15a"/>
      <path id="Path_7439" data-name="Path 7439" d="M207.984,253.879a.186.186,0,0,1,.142.344,3.5,3.5,0,0,1-.587.042A3.506,3.506,0,0,1,207.984,253.879Z" transform="translate(-197.697 -246.195)" fill="#ffe15a"/>
      <path id="Path_7440" data-name="Path 7440" d="M289.937,172.415a.186.186,0,0,1-.344-.142,3.5,3.5,0,0,1,.385-.444A3.5,3.5,0,0,1,289.937,172.415Z" transform="translate(-275.276 -168.618)" fill="#ffe15a"/>
      <path id="Path_7441" data-name="Path 7441" d="M244.609,285.453a.186.186,0,1,1,.344.142,3.5,3.5,0,0,1-.385.444A3.5,3.5,0,0,1,244.609,285.453Z" transform="translate(-232.711 -275.958)" fill="#ffe15a"/>
      <path id="Path_7442" data-name="Path 7442" d="M321.164,254.224a.186.186,0,0,1,.142-.344,3.5,3.5,0,0,1,.444.385A3.494,3.494,0,0,1,321.164,254.224Z" transform="translate(-305.035 -246.196)" fill="#ffe15a"/>
      <path id="Path_7443" data-name="Path 7443" d="M208.128,208.9a.186.186,0,1,1-.142.344,3.5,3.5,0,0,1-.444-.385A3.492,3.492,0,0,1,208.128,208.9Z" transform="translate(-197.698 -203.631)" fill="#ffe15a"/>
      <path id="Path_7444" data-name="Path 7444" d="M256.364,168.445a.186.186,0,1,1-.365.073,3.5,3.5,0,0,1,.074-.583A3.5,3.5,0,0,1,256.364,168.445Z" transform="translate(-243.519 -164.936)" fill="#ffe15a"/>
      <path id="Path_7445" data-name="Path 7445" d="M278.674,288.869a.186.186,0,0,1,.365-.073,3.5,3.5,0,0,1-.074.583A3.494,3.494,0,0,1,278.674,288.869Z" transform="translate(-264.96 -279.086)" fill="#ffe15a"/>
      <path id="Path_7446" data-name="Path 7446" d="M324.583,220.65a.186.186,0,1,1-.073-.365,3.5,3.5,0,0,1,.583.074A3.505,3.505,0,0,1,324.583,220.65Z" transform="translate(-308.167 -214.438)" fill="#ffe15a"/>
      <path id="Path_7447" data-name="Path 7447" d="M204.158,242.961a.186.186,0,0,1,.073.365,3.5,3.5,0,0,1-.583-.074A3.5,3.5,0,0,1,204.158,242.961Z" transform="translate(-194.016 -235.881)" fill="#ffe15a"/>
      <path id="Path_7448" data-name="Path 7448" d="M299.973,178.716a.186.186,0,1,1-.309-.207,3.5,3.5,0,0,1,.465-.361A3.5,3.5,0,0,1,299.973,178.716Z" transform="translate(-284.783 -174.596)" fill="#ffe15a"/>
      <path id="Path_7449" data-name="Path 7449" d="M232.893,280.047a.186.186,0,1,1,.309.207,3.5,3.5,0,0,1-.465.361A3.507,3.507,0,0,1,232.893,280.047Z" transform="translate(-221.525 -270.875)" fill="#ffe15a"/>
      <path id="Path_7450" data-name="Path 7450" d="M315.76,264.26a.186.186,0,0,1,.207-.309,3.5,3.5,0,0,1,.361.465A3.5,3.5,0,0,1,315.76,264.26Z" transform="translate(-299.956 -255.704)" fill="#ffe15a"/>
      <path id="Path_7451" data-name="Path 7451" d="M214.429,197.18a.186.186,0,0,1-.207.309,3.5,3.5,0,0,1-.361-.465A3.5,3.5,0,0,1,214.429,197.18Z" transform="translate(-203.675 -192.445)" fill="#ffe15a"/>
      <path id="Path_7452" data-name="Path 7452" d="M233.2,178.51a.186.186,0,1,1-.309.207,3.506,3.506,0,0,1-.155-.567A3.506,3.506,0,0,1,233.2,178.51Z" transform="translate(-221.525 -174.597)" fill="#ffe15a"/>
      <path id="Path_7453" data-name="Path 7453" d="M299.665,280.254a.186.186,0,0,1,.309-.207,3.5,3.5,0,0,1,.155.567A3.5,3.5,0,0,1,299.665,280.254Z" transform="translate(-284.784 -270.876)" fill="#ffe15a"/>
      <path id="Path_7454" data-name="Path 7454" d="M315.967,197.49a.186.186,0,1,1-.207-.309,3.5,3.5,0,0,1,.567-.155A3.5,3.5,0,0,1,315.967,197.49Z" transform="translate(-299.955 -192.445)" fill="#ffe15a"/>
      <path id="Path_7455" data-name="Path 7455" d="M214.224,263.952a.186.186,0,0,1,.207.309,3.5,3.5,0,0,1-.567.155A3.5,3.5,0,0,1,214.224,263.952Z" transform="translate(-203.677 -255.704)" fill="#ffe15a"/>
      <path id="Path_7456" data-name="Path 7456" d="M279.039,168.519a.186.186,0,0,1-.365-.073,3.5,3.5,0,0,1,.291-.511A3.5,3.5,0,0,1,279.039,168.519Z" transform="translate(-264.96 -164.938)" fill="#ffe15a"/>
      <path id="Path_7457" data-name="Path 7457" d="M256,288.8a.186.186,0,0,1,.365.073,3.5,3.5,0,0,1-.291.511A3.5,3.5,0,0,1,256,288.8Z" transform="translate(-243.518 -279.086)" fill="#ffe15a"/>
      <path id="Path_7458" data-name="Path 7458" d="M324.509,243.326a.186.186,0,1,1,.073-.365,3.5,3.5,0,0,1,.511.291A3.5,3.5,0,0,1,324.509,243.326Z" transform="translate(-308.166 -235.881)" fill="#ffe15a"/>
      <path id="Path_7459" data-name="Path 7459" d="M204.231,220.284a.186.186,0,1,1-.073.365,3.5,3.5,0,0,1-.511-.291A3.5,3.5,0,0,1,204.231,220.284Z" transform="translate(-194.016 -214.438)" fill="#ffe15a"/>
      <path id="Path_7460" data-name="Path 7460" d="M176.649,235.067a.142.142,0,0,0-.186.077h0l-.008.019a7.5,7.5,0,0,1-.554.963c.209-.673.4-1.392.414-1.443a.142.142,0,0,0-.274-.075,8.5,8.5,0,0,1-.481,1.2c.034-.434.04-.837.041-.866a.142.142,0,0,0-.136-.144.15.15,0,0,0-.148.132,4.775,4.775,0,0,1-2.827,3.728,5.845,5.845,0,0,0-1.214.257c-.059.02-.109.041-.159.061a.144.144,0,0,0-.059-.01,3.931,3.931,0,0,1-3.776-1.938,6.842,6.842,0,0,1-.908-2.179.142.142,0,0,0-.279.053,6.573,6.573,0,0,0,.362,1.153,5.976,5.976,0,0,1-.679-1.569.141.141,0,0,0-.009-.019.085.085,0,0,0-.028-.044.138.138,0,0,0-.025-.022.136.136,0,0,0-.017-.008.132.132,0,0,0-.032-.012.145.145,0,0,0-.025,0,.132.132,0,0,0-.025,0l-.005,0H165.6a.127.127,0,0,0-.02.01.147.147,0,0,0-.026.012.133.133,0,0,0-.02.019.141.141,0,0,0-.018.02.149.149,0,0,0-.011.025.137.137,0,0,0-.009.025.139.139,0,0,0,0,.028.128.128,0,0,0,0,.023l0,.01h0v0a6.1,6.1,0,0,0,.487,1.465,3.81,3.81,0,0,1-.642-.968.128.128,0,0,0-.011-.018.139.139,0,0,0-.017-.027.137.137,0,0,0-.017-.014.141.141,0,0,0-.027-.019.15.15,0,0,0-.02-.006.141.141,0,0,0-.032-.007.136.136,0,0,0-.026,0,.134.134,0,0,0-.024,0l0,0h0a.134.134,0,0,0-.02.013.142.142,0,0,0-.024.015.134.134,0,0,0-.018.022.145.145,0,0,0-.015.021.135.135,0,0,0-.008.026.133.133,0,0,0-.006.026.141.141,0,0,0,0,.028.132.132,0,0,0,0,.024,6.231,6.231,0,0,0,.818,1.511,3.289,3.289,0,0,1-.473-.451l-.017-.02a.142.142,0,0,0-.221.179l.031.038a8.606,8.606,0,0,0,.656.691l-.288-.123a.142.142,0,0,0-.141.245,8.108,8.108,0,0,0,.98.627,1.121,1.121,0,0,1-.145,0,.142.142,0,0,0-.065.273c.011,0,.145.06.312.119a.142.142,0,0,0-.017.255,4.242,4.242,0,0,0,.465.226.146.146,0,0,0-.016.034.142.142,0,0,0,.055.161,4.208,4.208,0,0,0,2.137.685c.074,0,.149,0,.224-.009a.142.142,0,1,0-.023-.283,3.547,3.547,0,0,1-1.8-.412.714.714,0,0,0,.092-.028.142.142,0,0,0-.051-.274,1.781,1.781,0,0,1-.59-.17.683.683,0,0,0,.121-.076.142.142,0,0,0-.068-.25,1.8,1.8,0,0,1-.215-.053.3.3,0,0,0,.122-.117.142.142,0,0,0-.1-.2.839.839,0,0,1-.125-.039.137.137,0,0,0,.022-.029.143.143,0,0,0-.035-.184s-.113-.089-.28-.233a.142.142,0,0,0,.061-.222s-.114-.143-.266-.354c.05.039.1.079.151.111a.144.144,0,0,0,.077.023.141.141,0,0,0,.126-.077,2.113,2.113,0,0,0,.272.247.132.132,0,0,0,.041.014q.061.1.126.2a4.25,4.25,0,0,0,3.541,2.083,3.013,3.013,0,0,1-.512.256c-.05.02-.1.039-.14.059a.136.136,0,0,0-.059.025,1.286,1.286,0,0,0-.638.5.265.265,0,0,0,.073.328.147.147,0,0,0,.157.017.146.146,0,0,0,.082-.134c.006-.006.031-.027.108-.029a2.932,2.932,0,0,1,.314.019c.132.011.29.023.459.032l-.228.265a.142.142,0,0,0,.113.235l.239-.007a.241.241,0,0,0,.132.089.371.371,0,0,1,.424,0,.452.452,0,0,0,.258-.048.343.343,0,0,0,.188.056h0a.471.471,0,0,0,.277-.107.349.349,0,0,0,.164.05.418.418,0,0,0,.242-.072.563.563,0,0,0,.487-.158.254.254,0,0,0,.141.036.33.33,0,0,0,.228-.121.519.519,0,0,0,.484-.126.34.34,0,0,0,.078-.192c.63,0,.687-.348.692-.39a.142.142,0,0,0-.133-.157l-1.652-.1a.141.141,0,0,0-.147.109.452.452,0,0,1-.117.19.966.966,0,0,1-.517.2.142.142,0,0,0-.193-.139,3.526,3.526,0,0,1-1.326.086,1.49,1.49,0,0,1,.21-.143.142.142,0,0,0,.071-.151.137.137,0,0,0-.078-.094c.12-.061.219-.119.312-.176a2.7,2.7,0,0,1,.595-.29,5.687,5.687,0,0,1,1.169-.245.141.141,0,0,0,.041-.01,5.581,5.581,0,0,0,2.609-2.446c-.011.051-.023.1-.035.139a.142.142,0,0,0,.232.146,2.146,2.146,0,0,1-.138.311.142.142,0,0,0,.043.192.15.15,0,0,0,.047.02c-.064.094-.129.183-.194.264a.142.142,0,0,0,0,.183,3.461,3.461,0,0,1-.285.274.142.142,0,0,0-.042.163.951.951,0,0,1-.173.083.142.142,0,0,0-.042.252c-.087.023-.182.046-.285.066a.142.142,0,0,0-.043.263,1.33,1.33,0,0,0,.127.062,5.776,5.776,0,0,1-1.572.335.142.142,0,0,0,.028.283,4.007,4.007,0,0,0,2.022-.551.142.142,0,0,0-.026-.235,2.225,2.225,0,0,0,.71-.333.142.142,0,0,0-.142-.242.566.566,0,0,1-.084.021c.328-.225.676-.492.829-.612.027-.02.051-.039.073-.057a.142.142,0,0,0-.18-.221l-.069.054c-.071.053-.161.112-.26.173.372-.423.747-.881.854-1.013l.029-.036a.142.142,0,0,0-.221-.179h0l-.035.043c-.112.137-.23.269-.347.393.379-.687.666-1.364.708-1.464l0-.011A.141.141,0,0,0,176.649,235.067Zm-6.665,4.793.039.005a.67.67,0,0,0-.117.146c-.068-.005-.129-.01-.177-.012A2.091,2.091,0,0,1,169.984,239.86Z" transform="translate(-157.537 -227.769)" fill="#ffe15a"/>
    </g>
  </g>
</svg>
