<svg xmlns="http://www.w3.org/2000/svg" width="254.979" height="30.908" viewBox="0 0 254.979 30.908">
  <g id="Group_5" data-name="Group 5" transform="translate(-2057.993 106.691)">
    <path id="Path_1" data-name="Path 1" d="M2080.24-301.739a17.4,17.4,0,0,0,5.565-7.226.339.339,0,0,0-.319-.453h-10.069a.81.81,0,0,1-.643-1.3l7.438-9.668a.811.811,0,0,1,1.306.028l13.048,18.548a.338.338,0,0,0,.276.143h16.1a.336.336,0,0,0,.227-.088,32.894,32.894,0,0,0,5.917-7.266.338.338,0,0,0-.295-.5h-16.933a.338.338,0,0,1-.279-.147L2087.553-330.2a5.432,5.432,0,0,0-8.864-.147l-20.63,28.133a.338.338,0,0,0,.272.538h21.707A.331.331,0,0,0,2080.24-301.739Z" transform="translate(0 225.89)" fill="#fff"/>
    <path id="Path_2" data-name="Path 2" d="M2281.758-332.093l14.037,19.491a.336.336,0,0,0,.274.14H2312.1a.34.34,0,0,0,.292-.168l5.369-9.229,10.61,17.641a4.556,4.556,0,0,0,7.767.068l17.443-27.882a.39.39,0,0,0-.331-.6h-9.39a.391.391,0,0,0-.33.181l-11.131,17.577a.811.811,0,0,1-1.386-.026l-8.883-15.259a5.1,5.1,0,0,0-8.852.051l-8.625,15.218a.811.811,0,0,1-1.379.051l-11.813-17.644a.338.338,0,0,0-.281-.15h-9.155A.338.338,0,0,0,2281.758-332.093Z" transform="translate(-191.683 226)" fill="#c9a748"/>
    <g id="Group_1" data-name="Group 1" transform="translate(2172.862 -106.691)">
      <path id="Path_3" data-name="Path 3" d="M2860.557-316.475l6.452-15.164h3.054l6.453,15.164h-3.463l-1.376-3.377h-6.368l-1.376,3.377Zm5.937-6.3h4l-2-4.883Z" transform="translate(-2860.557 331.79)" fill="#fff"/>
      <path id="Path_4" data-name="Path 4" d="M2984.789-317.118a7.768,7.768,0,0,1-5.71-2.183,7.491,7.491,0,0,1-2.2-5.56v-.043a7.527,7.527,0,0,1,2.259-5.517,7.626,7.626,0,0,1,5.634-2.269,9.645,9.645,0,0,1,3.313.505,8.468,8.468,0,0,1,2.6,1.56l-2.087,2.516a7.282,7.282,0,0,0-1.817-1.151,5.436,5.436,0,0,0-2.119-.376,4,4,0,0,0-3.065,1.376,4.739,4.739,0,0,0-1.259,3.313v.043a4.786,4.786,0,0,0,1.28,3.42,4.311,4.311,0,0,0,3.28,1.355,5.242,5.242,0,0,0,3.119-.9v-2.151h-3.334v-2.861h6.538v6.539A9.667,9.667,0,0,1,2984.789-317.118Z" transform="translate(-2960.227 332.691)" fill="#fff"/>
      <path id="Path_5" data-name="Path 5" d="M3099.353-315.831v-15.057h6.883a5.938,5.938,0,0,1,4.388,1.527,4.65,4.65,0,0,1,1.291,3.441v.043a4.581,4.581,0,0,1-3.227,4.668l3.678,5.377h-3.872l-3.225-4.818h-2.6v4.818Zm3.313-7.743h3.355a2.8,2.8,0,0,0,1.872-.57,1.944,1.944,0,0,0,.667-1.559v-.043a1.941,1.941,0,0,0-.678-1.6,2.987,2.987,0,0,0-1.925-.548h-3.291Z" transform="translate(-3065.175 331.146)" fill="#fff"/>
      <path id="Path_6" data-name="Path 6" d="M3217.058-319.387a7.814,7.814,0,0,1-5.732,2.269,7.779,7.779,0,0,1-5.71-2.248,7.437,7.437,0,0,1-2.269-5.5v-.043a7.473,7.473,0,0,1,2.291-5.517,7.813,7.813,0,0,1,5.731-2.269,7.785,7.785,0,0,1,5.712,2.248,7.438,7.438,0,0,1,2.269,5.5v.043A7.473,7.473,0,0,1,3217.058-319.387Zm-8.958-2.162a4.286,4.286,0,0,0,3.269,1.377,4.254,4.254,0,0,0,3.249-1.355,4.693,4.693,0,0,0,1.27-3.334v-.043a4.728,4.728,0,0,0-1.29-3.355,4.292,4.292,0,0,0-3.271-1.376,4.252,4.252,0,0,0-3.248,1.355,4.7,4.7,0,0,0-1.269,3.334v.043A4.725,4.725,0,0,0,3208.1-321.549Z" transform="translate(-3154.284 332.691)" fill="#fff"/>
      <path id="Path_7" data-name="Path 7" d="M3330.634-280.109v-3.14h6.625v3.14Z" transform="translate(-3263.353 290.326)" fill="#fff"/>
      <path id="Path_8" data-name="Path 8" d="M3388.823-315.981l-5.141-15.164h3.549l3.118,10.2,3.378-10.238h2.839l3.377,10.238,3.12-10.2h3.463l-5.14,15.164H3398.5l-3.4-9.851-3.4,9.851Z" transform="translate(-3308.808 331.403)" fill="#fff"/>
      <path id="Path_9" data-name="Path 9" d="M3560.411-315.831v-15.057h11.357v2.947H3563.7v3.054h7.1v2.947h-7.1v3.162h8.174v2.947Z" transform="translate(-3460.242 331.146)" fill="#fff"/>
      <path id="Path_10" data-name="Path 10" d="M3660.275-316.9a9.2,9.2,0,0,1-6.387-2.409l1.957-2.345a7.162,7.162,0,0,0,4.5,1.828,2.892,2.892,0,0,0,1.6-.376,1.184,1.184,0,0,0,.57-1.043v-.043a1.229,1.229,0,0,0-.6-1.054,8.616,8.616,0,0,0-2.43-.86,19.394,19.394,0,0,1-2.087-.635,6.547,6.547,0,0,1-1.527-.828,3.077,3.077,0,0,1-1.043-1.291,4.652,4.652,0,0,1-.334-1.85v-.043a4.114,4.114,0,0,1,1.463-3.291,5.665,5.665,0,0,1,3.808-1.248,8.733,8.733,0,0,1,5.593,1.914l-1.721,2.495a7.164,7.164,0,0,0-3.915-1.484,2.4,2.4,0,0,0-1.44.366,1.125,1.125,0,0,0-.495.946v.043a1.171,1.171,0,0,0,.613,1.086,13.026,13.026,0,0,0,2.635.893,9.451,9.451,0,0,1,3.614,1.656,3.55,3.55,0,0,1,1.162,2.861v.043a4.182,4.182,0,0,1-1.517,3.431A6.148,6.148,0,0,1,3660.275-316.9Z" transform="translate(-3540.34 332.434)" fill="#fff"/>
      <path id="Path_11" data-name="Path 11" d="M3752.094-315.831v-12h-4.582v-3.054h12.475v3.054h-4.581v12Z" transform="translate(-3620.564 331.146)" fill="#fff"/>
    </g>
    <g id="Group_2" data-name="Group 2" transform="translate(2172.862 -87.133)">
      <path id="Path_12" data-name="Path 12" d="M2860.557-184.478v-8.9h3.469a4.731,4.731,0,0,1,3.4,1.265,4.182,4.182,0,0,1,1.327,3.158v.025a4.217,4.217,0,0,1-1.327,3.177,4.716,4.716,0,0,1-3.4,1.271Zm3.469-7.13h-1.512v5.364h1.512a2.633,2.633,0,0,0,1.938-.737,2.583,2.583,0,0,0,.744-1.919v-.025a2.627,2.627,0,0,0-.744-1.932A2.61,2.61,0,0,0,2864.026-191.608Z" transform="translate(-2860.557 193.756)" fill="#c9a748"/>
      <path id="Path_13" data-name="Path 13" d="M2928.845-194.324v-1.716h2.033v1.716Zm.051,7.562v-6.812h1.932v6.812Z" transform="translate(-2919.071 196.04)" fill="#c9a748"/>
      <path id="Path_14" data-name="Path 14" d="M2954.588-172.482a4.647,4.647,0,0,1-2.923-1.03l.826-1.271a3.688,3.688,0,0,0,2.148.813q.814,0,.813-.508v-.025a.417.417,0,0,0-.031-.165.3.3,0,0,0-.12-.133c-.059-.038-.115-.074-.165-.108a1.01,1.01,0,0,0-.229-.1c-.1-.034-.187-.064-.255-.089s-.167-.057-.3-.1-.235-.07-.312-.1a5.02,5.02,0,0,1-.73-.254,3.81,3.81,0,0,1-.636-.369,1.508,1.508,0,0,1-.5-.591,1.926,1.926,0,0,1-.171-.833v-.025a1.928,1.928,0,0,1,.712-1.582,2.729,2.729,0,0,1,1.779-.578,4.537,4.537,0,0,1,2.541.788l-.737,1.335a3.823,3.823,0,0,0-1.843-.635.891.891,0,0,0-.527.133.4.4,0,0,0-.184.337v.025q0,.242.349.42a7.072,7.072,0,0,0,1.036.394,6.977,6.977,0,0,1,.737.28,3.953,3.953,0,0,1,.635.375,1.626,1.626,0,0,1,.509.578,1.69,1.69,0,0,1,.178.788v.025a1.949,1.949,0,0,1-.719,1.646A3.008,3.008,0,0,1,2954.588-172.482Z" transform="translate(-2938.625 181.887)" fill="#c9a748"/>
      <path id="Path_15" data-name="Path 15" d="M2998.417-182.31a2.121,2.121,0,0,1-1.469-.464,2.053,2.053,0,0,1-.515-1.582v-3.228h-.813v-1.652h.813v-1.741h1.932v1.741h1.6v1.652h-1.6v2.911c0,.441.208.661.623.661a1.922,1.922,0,0,0,.954-.241v1.55A2.92,2.92,0,0,1,2998.417-182.31Z" transform="translate(-2976.29 191.702)" fill="#c9a748"/>
      <path id="Path_16" data-name="Path 16" d="M3035.936-172.775v-6.812h1.932v1.373a2.137,2.137,0,0,1,2.174-1.5v2.021h-.1a1.962,1.962,0,0,0-1.532.6,2.62,2.62,0,0,0-.54,1.8v2.516Z" transform="translate(-3010.835 182.054)" fill="#c9a748"/>
      <path id="Path_17" data-name="Path 17" d="M3073.322-194.324v-1.716h2.035v1.716Zm.052,7.562v-6.812h1.932v6.812Z" transform="translate(-3042.869 196.04)" fill="#c9a748"/>
      <path id="Path_18" data-name="Path 18" d="M3103.926-186.635a2.658,2.658,0,0,1-2.123-1.017v.89h-1.932v-9.278h1.932v3.445a2.5,2.5,0,0,1,2.123-1.106,2.936,2.936,0,0,1,2.186.947,3.549,3.549,0,0,1,.915,2.574v.025a3.559,3.559,0,0,1-.909,2.574A2.928,2.928,0,0,1,3103.926-186.635Zm-1.672-2.167a1.523,1.523,0,0,0,1.176.528,1.548,1.548,0,0,0,1.182-.521,1.921,1.921,0,0,0,.483-1.36v-.025a1.927,1.927,0,0,0-.483-1.354,1.541,1.541,0,0,0-1.182-.527,1.524,1.524,0,0,0-1.176.527,1.944,1.944,0,0,0-.477,1.354v.025A1.943,1.943,0,0,0,3102.254-188.8Z" transform="translate(-3065.618 196.04)" fill="#c9a748"/>
      <path id="Path_19" data-name="Path 19" d="M3161.77-171.872a2.187,2.187,0,0,1-1.709-.667,2.675,2.675,0,0,1-.6-1.862v-4.41h1.932v3.8q0,1.385,1.169,1.385a1.131,1.131,0,0,0,.89-.356,1.5,1.5,0,0,0,.318-1.029v-3.8h1.932V-172h-1.932v-.966A2.485,2.485,0,0,1,3161.77-171.872Z" transform="translate(-3116.676 181.278)" fill="#c9a748"/>
      <path id="Path_20" data-name="Path 20" d="M3214.465-182.31a2.121,2.121,0,0,1-1.469-.464,2.055,2.055,0,0,1-.514-1.582v-3.228h-.814v-1.652h.814v-1.741h1.932v1.741h1.6v1.652h-1.6v2.911q0,.661.622.661a1.921,1.921,0,0,0,.953-.241v1.55A2.92,2.92,0,0,1,3214.465-182.31Z" transform="translate(-3161.415 191.702)" fill="#c9a748"/>
      <path id="Path_21" data-name="Path 21" d="M3252.251-194.324v-1.716h2.034v1.716Zm.051,7.562v-6.812h1.932v6.812Z" transform="translate(-3196.189 196.04)" fill="#c9a748"/>
      <path id="Path_22" data-name="Path 22" d="M3280.164-172.608a3.626,3.626,0,0,1-2.618-1.017,3.339,3.339,0,0,1-1.054-2.5v-.025a3.371,3.371,0,0,1,1.061-2.517,3.637,3.637,0,0,1,2.636-1.03,3.625,3.625,0,0,1,2.619,1.017,3.341,3.341,0,0,1,1.056,2.5v.025a3.373,3.373,0,0,1-1.062,2.517A3.639,3.639,0,0,1,3280.164-172.608Zm.025-1.665a1.646,1.646,0,0,0,1.284-.534,1.894,1.894,0,0,0,.482-1.322v-.025a1.907,1.907,0,0,0-.5-1.328,1.664,1.664,0,0,0-1.29-.553,1.647,1.647,0,0,0-1.284.534,1.9,1.9,0,0,0-.483,1.322v.025a1.907,1.907,0,0,0,.5,1.328A1.664,1.664,0,0,0,3280.189-174.273Z" transform="translate(-3216.96 182.039)" fill="#c9a748"/>
      <path id="Path_23" data-name="Path 23" d="M3337.762-172.76v-6.812h1.932v.966a2.485,2.485,0,0,1,2-1.093,2.184,2.184,0,0,1,1.708.667,2.672,2.672,0,0,1,.6,1.862v4.41h-1.932v-3.8q0-1.385-1.169-1.385a1.131,1.131,0,0,0-.89.356,1.5,1.5,0,0,0-.318,1.029v3.8Z" transform="translate(-3269.461 182.039)" fill="#c9a748"/>
      <path id="Path_24" data-name="Path 24" d="M3422.955-185.239a4.389,4.389,0,0,1-3.26-1.322,4.455,4.455,0,0,1-1.3-3.254v-.025a4.488,4.488,0,0,1,1.309-3.266,4.467,4.467,0,0,1,3.33-1.335,4.75,4.75,0,0,1,3.509,1.373l-1.246,1.436a3.443,3.443,0,0,0-2.275-1,2.39,2.39,0,0,0-1.842.807,2.8,2.8,0,0,0-.737,1.964v.025a2.857,2.857,0,0,0,.73,1.983,2.377,2.377,0,0,0,1.849.814,2.819,2.819,0,0,0,1.239-.254,4.542,4.542,0,0,0,1.1-.788l1.246,1.258a5.077,5.077,0,0,1-1.582,1.195A4.868,4.868,0,0,1,3422.955-185.239Z" transform="translate(-3338.551 194.67)" fill="#c9a748"/>
      <path id="Path_25" data-name="Path 25" d="M3485.735-172.608a3.624,3.624,0,0,1-2.618-1.017,3.337,3.337,0,0,1-1.056-2.5v-.025a3.376,3.376,0,0,1,1.061-2.517,3.64,3.64,0,0,1,2.637-1.03,3.626,3.626,0,0,1,2.618,1.017,3.343,3.343,0,0,1,1.055,2.5v.025a3.373,3.373,0,0,1-1.061,2.517A3.64,3.64,0,0,1,3485.735-172.608Zm.025-1.665a1.648,1.648,0,0,0,1.284-.534,1.9,1.9,0,0,0,.482-1.322v-.025a1.906,1.906,0,0,0-.5-1.328,1.665,1.665,0,0,0-1.29-.553,1.648,1.648,0,0,0-1.284.534,1.9,1.9,0,0,0-.483,1.322v.025a1.911,1.911,0,0,0,.5,1.328A1.665,1.665,0,0,0,3485.759-174.273Z" transform="translate(-3393.106 182.039)" fill="#c9a748"/>
      <path id="Path_26" data-name="Path 26" d="M3543.333-172.76v-6.812h1.931v.966a2.5,2.5,0,0,1,2.009-1.093,1.967,1.967,0,0,1,1.919,1.08,2.8,2.8,0,0,1,2.237-1.08,2.219,2.219,0,0,1,1.7.642,2.621,2.621,0,0,1,.6,1.862v4.436H3551.8v-3.8q0-1.385-1.131-1.385a1.078,1.078,0,0,0-.857.356,1.512,1.512,0,0,0-.312,1.029v3.8h-1.932v-3.8q0-1.385-1.131-1.385a1.082,1.082,0,0,0-.858.356,1.517,1.517,0,0,0-.312,1.029v3.8Z" transform="translate(-3445.609 182.039)" fill="#c9a748"/>
      <path id="Path_27" data-name="Path 27" d="M3627.693-170.727v-8.846h1.932v.979a2.5,2.5,0,0,1,2.122-1.106,2.937,2.937,0,0,1,2.187.947,3.548,3.548,0,0,1,.915,2.574v.025a3.562,3.562,0,0,1-.909,2.574,2.929,2.929,0,0,1-2.192.947,2.659,2.659,0,0,1-2.122-1.017v2.923Zm2.384-4.074a1.52,1.52,0,0,0,1.175.528,1.548,1.548,0,0,0,1.183-.521,1.922,1.922,0,0,0,.483-1.36v-.025a1.928,1.928,0,0,0-.483-1.354,1.541,1.541,0,0,0-1.183-.527,1.521,1.521,0,0,0-1.175.527,1.938,1.938,0,0,0-.477,1.354v.025A1.938,1.938,0,0,0,3630.076-174.8Z" transform="translate(-3517.894 182.039)" fill="#c9a748"/>
      <path id="Path_28" data-name="Path 28" d="M3687.13-172.329a2.532,2.532,0,0,1-1.672-.553,1.879,1.879,0,0,1-.667-1.531v-.025a1.9,1.9,0,0,1,.742-1.62,3.288,3.288,0,0,1,2-.553,5.238,5.238,0,0,1,1.665.28v-.115q0-1.245-1.461-1.245a5.194,5.194,0,0,0-1.882.369l-.482-1.474a6.685,6.685,0,0,1,2.644-.546,3.126,3.126,0,0,1,2.3.763,2.946,2.946,0,0,1,.738,2.173v3.953h-1.869v-.737A2.631,2.631,0,0,1,3687.13-172.329Zm.583-1.335a1.711,1.711,0,0,0,1.1-.33,1.056,1.056,0,0,0,.413-.864v-.343a3.007,3.007,0,0,0-1.232-.254,1.727,1.727,0,0,0-.979.241.792.792,0,0,0-.355.7v.025a.719.719,0,0,0,.292.6A1.223,1.223,0,0,0,3687.713-173.664Z" transform="translate(-3566.819 181.735)" fill="#c9a748"/>
      <path id="Path_29" data-name="Path 29" d="M3740.2-172.76v-6.812h1.932v.966a2.483,2.483,0,0,1,2-1.093,2.19,2.19,0,0,1,1.71.667,2.677,2.677,0,0,1,.6,1.862v4.41h-1.932v-3.8q0-1.385-1.169-1.385a1.132,1.132,0,0,0-.89.356,1.5,1.5,0,0,0-.317,1.029v3.8Z" transform="translate(-3614.3 182.039)" fill="#c9a748"/>
      <path id="Path_30" data-name="Path 30" d="M3793.527-174.173l1.486-4.639h2.008l-2.617,6.978a3.534,3.534,0,0,1-.884,1.474,2,2,0,0,1-1.352.432,3.328,3.328,0,0,1-1.716-.47l.647-1.4a1.627,1.627,0,0,0,.826.267.727.727,0,0,0,.4-.1.878.878,0,0,0,.273-.35l-2.669-6.838h2.046Z" transform="translate(-3656.911 181.278)" fill="#c9a748"/>
    </g>
  </g>
</svg>
