<svg xmlns="http://www.w3.org/2000/svg" width="14.628" height="11.11" viewBox="0 0 14.628 11.11">
  <path id="message-closed-envelope" d="M12.892,45.945H1.736A1.7,1.7,0,0,0,0,47.612v7.776a1.7,1.7,0,0,0,1.736,1.667H12.892a1.7,1.7,0,0,0,1.736-1.667V47.612A1.7,1.7,0,0,0,12.892,45.945Zm0,9.638H1.736c-.141,0-.264-.091-.264-.2V48.641L6.518,52.9a.575.575,0,0,0,.37.135H7.74a.575.575,0,0,0,.37-.135l5.046-4.26v6.748C13.156,55.492,13.033,55.583,12.892,55.583ZM7.314,51.574,2.407,47.417h9.815Z" transform="translate(0 -45.945)" fill="#fff"/>
</svg>
