<svg xmlns="http://www.w3.org/2000/svg" width="101.083" height="64.94" viewBox="0 0 101.083 64.94">
  <g id="Group_1397" data-name="Group 1397" transform="translate(-50 -2099.92)">
    <g id="Group_1326" data-name="Group 1326" transform="translate(51.908 2099.92)">
      <path id="Path_1" data-name="Path 1" d="M2079.214-303.161a16.6,16.6,0,0,0,5.309-6.892.324.324,0,0,0-.3-.432h-9.6a.773.773,0,0,1-.613-1.245l7.094-9.223a.774.774,0,0,1,1.246.026l12.446,17.692a.323.323,0,0,0,.263.137H2110.4a.321.321,0,0,0,.217-.084,31.377,31.377,0,0,0,5.645-6.931.323.323,0,0,0-.281-.482h-16.152a.322.322,0,0,1-.266-.14l-13.378-19.571a5.181,5.181,0,0,0-8.455-.14l-19.678,26.835a.322.322,0,0,0,.26.513h20.706A.316.316,0,0,0,2079.214-303.161Z" transform="translate(-2057.993 332.58)" fill="#fff"/>
      <path id="Path_2" data-name="Path 2" d="M2281.755-332.121l13.389,18.592a.32.32,0,0,0,.261.134h15.3a.324.324,0,0,0,.279-.16l5.122-8.8,10.121,16.827a4.346,4.346,0,0,0,7.409.065l16.639-26.6a.372.372,0,0,0-.315-.569H2341a.373.373,0,0,0-.314.173l-10.617,16.766a.774.774,0,0,1-1.322-.025l-8.474-14.555a4.869,4.869,0,0,0-8.443.049l-8.227,14.516a.773.773,0,0,1-1.315.049l-11.268-16.83a.322.322,0,0,0-.268-.143h-8.732A.322.322,0,0,0,2281.755-332.121Z" transform="translate(-2251.153 332.691)" fill="#c9a748"/>
    </g>
    <g id="Group_1327" data-name="Group 1327" transform="translate(50 2142.561)">
      <path id="Path_3" data-name="Path 3" d="M2860.557-320.7l4.655-10.94h2.2l4.656,10.94h-2.5l-.992-2.436h-4.595l-.993,2.436Zm4.283-4.547h2.886l-1.443-3.522Z" transform="translate(-2860.557 331.748)" fill="#fff"/>
      <path id="Path_4" data-name="Path 4" d="M2982.584-321.456a5.6,5.6,0,0,1-4.119-1.575,5.4,5.4,0,0,1-1.59-4.011v-.031a5.43,5.43,0,0,1,1.63-3.98,5.5,5.5,0,0,1,4.065-1.637,6.959,6.959,0,0,1,2.39.365,6.113,6.113,0,0,1,1.877,1.125l-1.505,1.816a5.263,5.263,0,0,0-1.311-.83,3.923,3.923,0,0,0-1.529-.271,2.883,2.883,0,0,0-2.211.993,3.418,3.418,0,0,0-.908,2.39v.031a3.452,3.452,0,0,0,.924,2.467,3.11,3.11,0,0,0,2.366.978,3.782,3.782,0,0,0,2.251-.652v-1.552h-2.405V-327.9h4.717v4.717A6.974,6.974,0,0,1,2982.584-321.456Z" transform="translate(-2964.864 332.691)" fill="#fff"/>
      <path id="Path_5" data-name="Path 5" d="M3099.353-320.025v-10.863h4.966a4.285,4.285,0,0,1,3.166,1.1,3.356,3.356,0,0,1,.931,2.483v.031a3.3,3.3,0,0,1-2.328,3.367l2.654,3.879h-2.794l-2.327-3.476h-1.878v3.476Zm2.39-5.586h2.421a2.017,2.017,0,0,0,1.35-.411,1.4,1.4,0,0,0,.481-1.125v-.031a1.4,1.4,0,0,0-.489-1.156,2.155,2.155,0,0,0-1.389-.4h-2.374Z" transform="translate(-3074.694 331.074)" fill="#fff"/>
      <path id="Path_6" data-name="Path 6" d="M3213.239-323.093a5.638,5.638,0,0,1-4.136,1.637,5.612,5.612,0,0,1-4.12-1.622,5.365,5.365,0,0,1-1.637-3.965v-.031a5.392,5.392,0,0,1,1.653-3.98,5.638,5.638,0,0,1,4.135-1.637,5.617,5.617,0,0,1,4.121,1.622,5.366,5.366,0,0,1,1.637,3.965v.031A5.391,5.391,0,0,1,3213.239-323.093Zm-6.463-1.56a3.092,3.092,0,0,0,2.358.993,3.069,3.069,0,0,0,2.344-.978,3.385,3.385,0,0,0,.916-2.405v-.031a3.41,3.41,0,0,0-.931-2.421,3.1,3.1,0,0,0-2.359-.993,3.067,3.067,0,0,0-2.343.978,3.387,3.387,0,0,0-.915,2.405v.031A3.409,3.409,0,0,0,3206.776-324.653Z" transform="translate(-3167.95 332.691)" fill="#fff"/>
      <path id="Path_7" data-name="Path 7" d="M3330.634-280.983v-2.266h4.78v2.266Z" transform="translate(-3282.094 288.354)" fill="#fff"/>
      <path id="Path_8" data-name="Path 8" d="M3387.391-320.217l-3.709-10.94h2.561l2.249,7.355,2.437-7.386h2.048l2.436,7.386,2.25-7.355h2.5l-3.708,10.94h-2.08l-2.452-7.107-2.452,7.107Z" transform="translate(-3329.664 331.343)" fill="#fff"/>
      <path id="Path_9" data-name="Path 9" d="M3560.411-320.025v-10.863h8.194v2.126h-5.82v2.2h5.121v2.126h-5.121v2.281h5.9v2.126Z" transform="translate(-3488.144 331.074)" fill="#fff"/>
      <path id="Path_10" data-name="Path 10" d="M3658.5-321.218a6.637,6.637,0,0,1-4.608-1.738l1.412-1.691a5.167,5.167,0,0,0,3.243,1.319,2.087,2.087,0,0,0,1.156-.271.854.854,0,0,0,.411-.753v-.031a.887.887,0,0,0-.434-.76,6.227,6.227,0,0,0-1.753-.621,13.942,13.942,0,0,1-1.506-.458,4.7,4.7,0,0,1-1.1-.6,2.219,2.219,0,0,1-.753-.931,3.36,3.36,0,0,1-.241-1.335v-.031a2.968,2.968,0,0,1,1.055-2.374,4.088,4.088,0,0,1,2.747-.9,6.3,6.3,0,0,1,4.035,1.381l-1.242,1.8a5.169,5.169,0,0,0-2.824-1.071,1.73,1.73,0,0,0-1.039.264.812.812,0,0,0-.357.683v.031a.845.845,0,0,0,.442.784,9.4,9.4,0,0,0,1.9.644,6.819,6.819,0,0,1,2.607,1.195,2.562,2.562,0,0,1,.838,2.064v.031a3.016,3.016,0,0,1-1.094,2.475A4.434,4.434,0,0,1,3658.5-321.218Z" transform="translate(-3571.968 332.422)" fill="#fff"/>
      <path id="Path_11" data-name="Path 11" d="M3750.817-320.025v-8.659h-3.306v-2.2h9v2.2h-3.3v8.659Z" transform="translate(-3655.924 331.074)" fill="#fff"/>
    </g>
    <g id="Group_1328" data-name="Group 1328" transform="translate(50 2156.672)">
      <path id="Path_12" data-name="Path 12" d="M2860.557-186.956v-6.419h2.5a3.413,3.413,0,0,1,2.453.912,3.017,3.017,0,0,1,.958,2.279v.018a3.042,3.042,0,0,1-.958,2.292,3.4,3.4,0,0,1-2.453.917Zm2.5-5.144h-1.09v3.87h1.09a1.9,1.9,0,0,0,1.4-.532,1.865,1.865,0,0,0,.537-1.385v-.018a1.9,1.9,0,0,0-.537-1.394A1.883,1.883,0,0,0,2863.06-192.1Z" transform="translate(-2860.557 193.65)" fill="#c9a748"/>
      <path id="Path_13" data-name="Path 13" d="M2928.845-194.8v-1.238h1.467v1.238Zm.037,5.456v-4.915h1.393v4.915Z" transform="translate(-2921.794 196.04)" fill="#c9a748"/>
      <path id="Path_14" data-name="Path 14" d="M2953.774-174.443a3.354,3.354,0,0,1-2.109-.743l.6-.917a2.662,2.662,0,0,0,1.55.587q.587,0,.587-.367v-.018a.3.3,0,0,0-.023-.119.217.217,0,0,0-.087-.1l-.119-.078a.724.724,0,0,0-.165-.073c-.073-.024-.135-.046-.184-.064s-.12-.041-.215-.069-.169-.05-.225-.069a3.642,3.642,0,0,1-.527-.183,2.759,2.759,0,0,1-.459-.266,1.084,1.084,0,0,1-.358-.426,1.388,1.388,0,0,1-.124-.6v-.018a1.391,1.391,0,0,1,.514-1.142,1.97,1.97,0,0,1,1.284-.417,3.275,3.275,0,0,1,1.834.569l-.531.963a2.76,2.76,0,0,0-1.33-.458.642.642,0,0,0-.38.1.289.289,0,0,0-.133.243v.018q0,.174.251.3a5.107,5.107,0,0,0,.748.284,5.046,5.046,0,0,1,.532.2,2.868,2.868,0,0,1,.458.271,1.174,1.174,0,0,1,.367.417,1.216,1.216,0,0,1,.128.569v.018a1.405,1.405,0,0,1-.518,1.187A2.168,2.168,0,0,1,2953.774-174.443Z" transform="translate(-2942.257 181.229)" fill="#c9a748"/>
      <path id="Path_15" data-name="Path 15" d="M2997.638-184.724a1.529,1.529,0,0,1-1.059-.335,1.481,1.481,0,0,1-.371-1.142v-2.329h-.587v-1.192h.587v-1.256h1.393v1.256h1.156v1.192H2997.6v2.1c0,.318.151.477.449.477a1.388,1.388,0,0,0,.688-.174v1.119A2.108,2.108,0,0,1,2997.638-184.724Z" transform="translate(-2981.674 191.501)" fill="#c9a748"/>
      <path id="Path_16" data-name="Path 16" d="M3035.936-174.709v-4.915h1.394v.99a1.542,1.542,0,0,1,1.568-1.082v1.458h-.073a1.415,1.415,0,0,0-1.105.431,1.892,1.892,0,0,0-.389,1.3v1.816Z" transform="translate(-3017.826 181.403)" fill="#c9a748"/>
      <path id="Path_17" data-name="Path 17" d="M3073.322-194.8v-1.238h1.467v1.238Zm.037,5.456v-4.915h1.394v4.915Z" transform="translate(-3051.352 196.04)" fill="#c9a748"/>
      <path id="Path_18" data-name="Path 18" d="M3102.8-189.254a1.917,1.917,0,0,1-1.531-.734v.642h-1.394v-6.694h1.394v2.485a1.8,1.8,0,0,1,1.531-.8,2.118,2.118,0,0,1,1.577.683,2.56,2.56,0,0,1,.66,1.857v.018a2.567,2.567,0,0,1-.656,1.857A2.113,2.113,0,0,1,3102.8-189.254Zm-1.206-1.563a1.1,1.1,0,0,0,.848.381,1.118,1.118,0,0,0,.853-.376,1.386,1.386,0,0,0,.349-.981v-.018a1.39,1.39,0,0,0-.349-.977,1.112,1.112,0,0,0-.853-.381,1.1,1.1,0,0,0-.848.381,1.4,1.4,0,0,0-.344.977v.018A1.4,1.4,0,0,0,3101.59-190.818Z" transform="translate(-3075.159 196.04)" fill="#c9a748"/>
      <path id="Path_19" data-name="Path 19" d="M3161.125-173.805a1.577,1.577,0,0,1-1.233-.481,1.928,1.928,0,0,1-.436-1.343v-3.182h1.393v2.742q0,1,.844,1a.817.817,0,0,0,.642-.257,1.08,1.08,0,0,0,.229-.743v-2.742h1.394v4.915h-1.394v-.7A1.792,1.792,0,0,1,3161.125-173.805Z" transform="translate(-3128.593 180.591)" fill="#c9a748"/>
      <path id="Path_20" data-name="Path 20" d="M3213.686-184.724a1.53,1.53,0,0,1-1.06-.335,1.483,1.483,0,0,1-.371-1.142v-2.329h-.587v-1.192h.587v-1.256h1.394v1.256h1.155v1.192h-1.155v2.1q0,.477.449.477a1.385,1.385,0,0,0,.688-.174v1.119A2.106,2.106,0,0,1,3213.686-184.724Z" transform="translate(-3175.413 191.501)" fill="#c9a748"/>
      <path id="Path_21" data-name="Path 21" d="M3252.251-194.8v-1.238h1.468v1.238Zm.037,5.456v-4.915h1.394v4.915Z" transform="translate(-3211.805 196.04)" fill="#c9a748"/>
      <path id="Path_22" data-name="Path 22" d="M3279.141-174.583a2.614,2.614,0,0,1-1.889-.734,2.408,2.408,0,0,1-.761-1.806v-.018a2.432,2.432,0,0,1,.765-1.816,2.624,2.624,0,0,1,1.9-.743,2.615,2.615,0,0,1,1.889.734,2.411,2.411,0,0,1,.762,1.806v.018a2.433,2.433,0,0,1-.767,1.816A2.625,2.625,0,0,1,3279.141-174.583Zm.018-1.2a1.188,1.188,0,0,0,.926-.385,1.367,1.367,0,0,0,.348-.954v-.018a1.376,1.376,0,0,0-.362-.958,1.2,1.2,0,0,0-.931-.4,1.188,1.188,0,0,0-.926.385,1.37,1.37,0,0,0-.349.954v.018a1.376,1.376,0,0,0,.362.958A1.2,1.2,0,0,0,3279.159-175.785Z" transform="translate(-3233.542 181.387)" fill="#c9a748"/>
      <path id="Path_23" data-name="Path 23" d="M3337.762-174.693v-4.915h1.394v.7a1.793,1.793,0,0,1,1.44-.789,1.576,1.576,0,0,1,1.232.481,1.928,1.928,0,0,1,.436,1.343v3.182h-1.394v-2.742q0-1-.843-1a.814.814,0,0,0-.642.257,1.078,1.078,0,0,0-.23.743v2.742Z" transform="translate(-3288.486 181.387)" fill="#c9a748"/>
      <path id="Path_24" data-name="Path 24" d="M3421.684-187.8a3.167,3.167,0,0,1-2.352-.954,3.215,3.215,0,0,1-.94-2.347v-.018a3.238,3.238,0,0,1,.944-2.357,3.223,3.223,0,0,1,2.4-.963,3.428,3.428,0,0,1,2.531.99l-.9,1.036a2.483,2.483,0,0,0-1.641-.724,1.725,1.725,0,0,0-1.329.582,2.023,2.023,0,0,0-.532,1.417v.018a2.061,2.061,0,0,0,.527,1.43,1.715,1.715,0,0,0,1.334.587,2.032,2.032,0,0,0,.894-.183,3.28,3.28,0,0,0,.793-.569l.9.908a3.656,3.656,0,0,1-1.142.862A3.508,3.508,0,0,1,3421.684-187.8Z" transform="translate(-3360.791 194.606)" fill="#c9a748"/>
      <path id="Path_25" data-name="Path 25" d="M3484.711-174.583a2.614,2.614,0,0,1-1.889-.734,2.408,2.408,0,0,1-.762-1.806v-.018a2.435,2.435,0,0,1,.766-1.816,2.626,2.626,0,0,1,1.9-.743,2.617,2.617,0,0,1,1.89.734,2.414,2.414,0,0,1,.761,1.806v.018a2.433,2.433,0,0,1-.765,1.816A2.627,2.627,0,0,1,3484.711-174.583Zm.018-1.2a1.19,1.19,0,0,0,.927-.385,1.37,1.37,0,0,0,.348-.954v-.018a1.377,1.377,0,0,0-.362-.958,1.2,1.2,0,0,0-.931-.4,1.189,1.189,0,0,0-.926.385,1.371,1.371,0,0,0-.349.954v.018a1.381,1.381,0,0,0,.362.958A1.2,1.2,0,0,0,3484.729-175.785Z" transform="translate(-3417.884 181.387)" fill="#c9a748"/>
      <path id="Path_26" data-name="Path 26" d="M3543.332-174.693v-4.915h1.393v.7a1.8,1.8,0,0,1,1.449-.789,1.419,1.419,0,0,1,1.384.779,2.023,2.023,0,0,1,1.614-.779,1.6,1.6,0,0,1,1.224.463,1.892,1.892,0,0,1,.434,1.343v3.2h-1.393v-2.742q0-1-.816-1a.778.778,0,0,0-.619.257,1.091,1.091,0,0,0-.226.743v2.742h-1.394v-2.742q0-1-.816-1a.781.781,0,0,0-.619.257,1.093,1.093,0,0,0-.225.743v2.742Z" transform="translate(-3472.829 181.387)" fill="#c9a748"/>
      <path id="Path_27" data-name="Path 27" d="M3627.692-173.226v-6.382h1.395v.706a1.8,1.8,0,0,1,1.531-.8,2.117,2.117,0,0,1,1.577.683,2.56,2.56,0,0,1,.66,1.857v.018a2.569,2.569,0,0,1-.656,1.857,2.113,2.113,0,0,1-1.582.683,1.918,1.918,0,0,1-1.531-.734v2.109Zm1.72-2.939a1.1,1.1,0,0,0,.848.381,1.117,1.117,0,0,0,.853-.376,1.388,1.388,0,0,0,.349-.981v-.018a1.392,1.392,0,0,0-.349-.977,1.112,1.112,0,0,0-.853-.381,1.1,1.1,0,0,0-.848.381,1.4,1.4,0,0,0-.344.977v.018A1.4,1.4,0,0,0,3629.412-176.165Z" transform="translate(-3548.478 181.387)" fill="#c9a748"/>
      <path id="Path_28" data-name="Path 28" d="M3686.478-174.283a1.826,1.826,0,0,1-1.206-.4,1.355,1.355,0,0,1-.481-1.1v-.018a1.367,1.367,0,0,1,.535-1.169,2.372,2.372,0,0,1,1.445-.4,3.779,3.779,0,0,1,1.2.2v-.083q0-.9-1.054-.9a3.746,3.746,0,0,0-1.357.266l-.348-1.064a4.824,4.824,0,0,1,1.907-.394,2.254,2.254,0,0,1,1.659.55,2.125,2.125,0,0,1,.533,1.568v2.852h-1.349v-.532A1.9,1.9,0,0,1,3686.478-174.283Zm.421-.963a1.235,1.235,0,0,0,.794-.238.762.762,0,0,0,.3-.624v-.248a2.17,2.17,0,0,0-.889-.183,1.245,1.245,0,0,0-.706.174.571.571,0,0,0-.257.5v.018a.519.519,0,0,0,.211.436A.885.885,0,0,0,3686.9-175.246Z" transform="translate(-3599.68 181.069)" fill="#c9a748"/>
      <path id="Path_29" data-name="Path 29" d="M3740.2-174.693v-4.915h1.394v.7a1.792,1.792,0,0,1,1.44-.789,1.579,1.579,0,0,1,1.233.481,1.931,1.931,0,0,1,.435,1.343v3.182h-1.394v-2.742q0-1-.843-1a.816.816,0,0,0-.642.257,1.079,1.079,0,0,0-.229.743v2.742Z" transform="translate(-3649.37 181.387)" fill="#c9a748"/>
      <path id="Path_30" data-name="Path 30" d="M3792.525-175.465l1.072-3.347h1.449l-1.889,5.034a2.548,2.548,0,0,1-.638,1.064,1.445,1.445,0,0,1-.976.312,2.4,2.4,0,0,1-1.238-.339l.467-1.009a1.174,1.174,0,0,0,.6.193.523.523,0,0,0,.289-.069.629.629,0,0,0,.2-.252l-1.925-4.933h1.476Z" transform="translate(-3693.963 180.591)" fill="#c9a748"/>
    </g>
  </g>
</svg>
