<svg id="new-zealand" xmlns="http://www.w3.org/2000/svg" width="27.834" height="18.236" viewBox="0 0 27.834 18.236">
  <path id="Path_7461" data-name="Path 7461" d="M25.75,106.512H2.085A2.085,2.085,0,0,1,0,104.428V90.361a2.085,2.085,0,0,1,2.085-2.085H25.75a2.085,2.085,0,0,1,2.085,2.085v14.067A2.085,2.085,0,0,1,25.75,106.512Z" transform="translate(0 -88.276)" fill="#41479b"/>
  <path id="Path_7462" data-name="Path 7462" d="M.48,97.394h.834l4.445-2.913v2.913h2.4V94.482L12.6,97.394h.834a.48.48,0,0,0,.48-.48v-.381l-3.814-2.5h3.814v-2.4H10.1l3.814-2.5v-.381a.48.48,0,0,0-.48-.48H12.6L8.158,91.189V88.276h-2.4v2.913l-4.3-2.817a2.09,2.09,0,0,0-1.18.948l3.535,2.316H0v2.4H3.814L0,96.534v.381A.48.48,0,0,0,.48,97.394Z" transform="translate(0 -88.276)" fill="#f5f5f5"/>
  <g id="Group_2122" data-name="Group 2122" transform="translate(0 0)">
    <path id="Path_7463" data-name="Path 7463" d="M13.917,92.115H7.678V88.276H6.239v3.839H0v1.44H6.239v3.839h1.44V93.555h6.239Z" transform="translate(0 -88.276)" fill="#ff4b55"/>
    <path id="Path_7464" data-name="Path 7464" d="M8.227,96.866l3.95,2.564h.881L8.574,96.519A2.1,2.1,0,0,0,8.227,96.866Z" transform="translate(-7.78 -96.071)" fill="#ff4b55"/>
    <path id="Path_7465" data-name="Path 7465" d="M150.95,91.635l4.8-3.119a.473.473,0,0,0-.407-.241h-.1l-5.175,3.359Z" transform="translate(-141.911 -88.276)" fill="#ff4b55"/>
    <path id="Path_7466" data-name="Path 7466" d="M6.064,194.207l-4.8,3.113a.474.474,0,0,0,.411.247H1.77l5.175-3.359Z" transform="translate(-1.2 -188.448)" fill="#ff4b55"/>
    <path id="Path_7467" data-name="Path 7467" d="M162.356,197.124l-4.494-2.917h-.881l5.1,3.313A.475.475,0,0,0,162.356,197.124Z" transform="translate(-148.446 -188.448)" fill="#ff4b55"/>
    <path id="Path_7468" data-name="Path 7468" d="M365.4,331.38a.1.1,0,0,1-.056-.018l-.568-.406-.568.406a.1.1,0,0,1-.056.018.1.1,0,0,1-.092-.125l.211-.666-.561-.414a.1.1,0,0,1,.056-.173l.7-.006.221-.662a.1.1,0,0,1,.182,0l.221.662.7.006a.1.1,0,0,1,.056.173l-.561.414.211.666a.1.1,0,0,1-.035.107A.1.1,0,0,1,365.4,331.38Z" transform="translate(-343.899 -316.167)" fill="#ff4b55"/>
  </g>
  <path id="Path_7469" data-name="Path 7469" d="M363.107,327.695l.243.727.767.006-.617.455.231.731-.624-.446-.624.446.231-.731-.617-.455.767-.006.243-.727m0-.192a.192.192,0,0,0-.182.131l-.2.6-.629,0a.192.192,0,0,0-.113.346l.506.374-.19.6a.192.192,0,0,0,.295.214l.512-.366.512.366a.192.192,0,0,0,.295-.214l-.19-.6.506-.374a.192.192,0,0,0-.113-.346l-.629,0-.2-.6a.192.192,0,0,0-.182-.131Z" transform="translate(-342.231 -314.498)" fill="#f5f5f5"/>
  <path id="Path_7470" data-name="Path 7470" d="M365.4,189.061a.1.1,0,0,1-.056-.018l-.568-.406-.568.406a.1.1,0,0,1-.056.018.1.1,0,0,1-.092-.125l.211-.666-.561-.415a.1.1,0,0,1,.056-.173l.7-.005.221-.662a.1.1,0,0,1,.182,0l.221.662.7.005a.1.1,0,0,1,.056.173l-.561.415.211.666a.1.1,0,0,1-.035.107A.1.1,0,0,1,365.4,189.061Z" transform="translate(-343.899 -181.585)" fill="#ff4b55"/>
  <path id="Path_7471" data-name="Path 7471" d="M363.107,185.374l.243.727.767.006-.617.455.231.731-.624-.446-.624.446.231-.731-.617-.455.767-.006.243-.727m0-.192a.192.192,0,0,0-.182.131l-.2.6-.629,0a.192.192,0,0,0-.113.346l.506.374-.19.6a.192.192,0,0,0,.295.214l.512-.366.512.366a.192.192,0,0,0,.295-.214l-.19-.6.506-.374a.192.192,0,0,0-.113-.346l-.629,0-.2-.6a.192.192,0,0,0-.182-.131Z" transform="translate(-342.231 -179.914)" fill="#f5f5f5"/>
  <path id="Path_7472" data-name="Path 7472" d="M427.193,233.2a.1.1,0,0,1-.056-.018l-.568-.406-.568.406a.1.1,0,0,1-.056.018.1.1,0,0,1-.092-.125l.211-.666-.561-.415a.1.1,0,0,1,.056-.173l.7-.005.221-.662a.1.1,0,0,1,.182,0l.221.662.7.005a.1.1,0,0,1,.056.173l-.561.415.211.666a.1.1,0,0,1-.035.107A.1.1,0,0,1,427.193,233.2Z" transform="translate(-402.334 -223.322)" fill="#ff4b55"/>
  <path id="Path_7473" data-name="Path 7473" d="M424.9,229.512l.242.727.767.006-.617.455.231.731-.624-.446-.624.446.231-.731-.617-.455.767-.006.243-.727m0-.192a.192.192,0,0,0-.182.131l-.2.6-.629,0a.192.192,0,0,0-.113.346l.506.374-.19.6a.192.192,0,0,0,.295.214l.512-.366.512.366a.192.192,0,0,0,.295-.214l-.19-.6.506-.374a.192.192,0,0,0-.112-.346l-.629,0-.2-.6a.192.192,0,0,0-.182-.131Z" transform="translate(-400.665 -221.652)" fill="#f5f5f5"/>
  <path id="Path_7474" data-name="Path 7474" d="M303.607,250.853a.1.1,0,0,1-.056-.018l-.568-.406-.568.406a.1.1,0,0,1-.056.018.1.1,0,0,1-.092-.125l.211-.666-.561-.415a.1.1,0,0,1,.056-.173l.7-.005.221-.662a.1.1,0,0,1,.182,0l.221.662.7.005a.1.1,0,0,1,.056.173l-.561.415.211.666a.1.1,0,0,1-.092.125Z" transform="translate(-285.466 -240.017)" fill="#ff4b55"/>
  <path id="Path_7475" data-name="Path 7475" d="M301.314,247.167l.242.727.767.006-.617.455.231.731-.624-.446-.624.446.231-.731-.617-.455.767-.006.243-.727m0-.192a.192.192,0,0,0-.182.131l-.2.6-.629,0a.192.192,0,0,0-.113.346l.506.374-.19.6a.192.192,0,0,0,.295.214l.512-.366.512.366a.192.192,0,0,0,.295-.214l-.19-.6.506-.374a.192.192,0,0,0-.112-.346l-.629,0-.2-.6a.193.193,0,0,0-.182-.131Z" transform="translate(-283.797 -238.347)" fill="#f5f5f5"/>
</svg>
