<svg id="cake" xmlns="http://www.w3.org/2000/svg" width="23.162" height="24.408" viewBox="0 0 23.162 24.408">
  <g id="Group_261" data-name="Group 261" transform="translate(0 0)">
    <path id="Path_361" data-name="Path 361" d="M32.925,14.637a.5.5,0,0,0,0-.066.508.508,0,0,0-.046-.082l-.046-.061L23.752,5.749a.51.51,0,0,0-.271-.138,18.151,18.151,0,0,0-2.348-.174,2.466,2.466,0,0,0-1.021-.47c-.087-.939.015-3.063,1.766-4a.517.517,0,0,0-.511-.9C19.1,1.3,18.948,3.86,19,4.963a2.486,2.486,0,0,0-1.2.659c-3.732.562-6.489,2.226-7.984,4.829v.056a.511.511,0,0,0-.041.189v9.118a.51.51,0,0,0,.419.511l22.141,4.084h.092a.511.511,0,0,0,.511-.511V14.714A.521.521,0,0,0,32.925,14.637ZM19.591,5.9a1.47,1.47,0,1,1-1.465,1.475V7.373A1.47,1.47,0,0,1,19.591,5.9Zm-2.4.858h0a2.453,2.453,0,0,0-.082.608,2.491,2.491,0,1,0,4.773-.924c.577.031,1.021.082,1.225.107l7.749,7.407-19.7-3.635A9.211,9.211,0,0,1,17.187,6.76ZM10.805,19.385v-2.45l21.12,3.8.005,2.547Zm0-3.487V14.366l21.12,3.8.005,1.542Zm0-2.558V11.3l15.667,2.895,5.447,1.021.01,1.945Z" transform="translate(-9.769 0)" fill="#ffc91e"/>
  </g>
</svg>
