<svg xmlns="http://www.w3.org/2000/svg" width="13.294" height="27.035" viewBox="0 0 13.294 27.035">
  <g id="Icons" transform="translate(0.15 0.15)">
    <path id="Path_343" data-name="Path 343" d="M34.951,30.049H25.042A1.545,1.545,0,0,1,23.5,28.506V14.747a6.378,6.378,0,0,1,.878-3.23l2.357-4V5.45h6.525V7.512l2.356,4a6.373,6.373,0,0,1,.878,3.23v13.76a1.545,1.545,0,0,1-1.542,1.543ZM27.5,6.214V7.722L25.037,11.9a5.614,5.614,0,0,0-.773,2.842V28.506a.78.78,0,0,0,.779.78h9.909a.78.78,0,0,0,.78-.78V14.747a5.61,5.61,0,0,0-.773-2.842L32.495,7.722V6.214Z" transform="translate(-23.499 -3.315)" fill="#ffc91e" stroke="#ffc91e" stroke-width="0.3"/>
    <path id="Path_344" data-name="Path 344" d="M37.335,2.757H31.269a.805.805,0,0,1-.8-.8V.663a.805.805,0,0,1,.8-.8h6.066a.806.806,0,0,1,.8.8v1.29a.806.806,0,0,1-.8.8ZM31.269.623a.041.041,0,0,0-.04.04v1.29a.041.041,0,0,0,.04.04h6.066a.041.041,0,0,0,.041-.04V.663a.041.041,0,0,0-.041-.04Z" transform="translate(-27.805 0.141)" fill="#ffc91e" stroke="#ffc91e" stroke-width="0.3"/>
    <path id="Path_345" data-name="Path 345" d="M26.555,38a2.282,2.282,0,0,1-1.189-.355,1.478,1.478,0,0,0-1.048-.245l-.1-.758a2.228,2.228,0,0,1,1.514.333,1.535,1.535,0,0,0,2-.258,2.292,2.292,0,0,1,2.893-.373,1.536,1.536,0,0,0,2-.257,2.292,2.292,0,0,1,2.894-.374,1.484,1.484,0,0,0,1.048.245l.1.757a2.225,2.225,0,0,1-1.514-.333,1.537,1.537,0,0,0-2,.258,2.292,2.292,0,0,1-2.893.373,1.535,1.535,0,0,0-2,.258,2.227,2.227,0,0,1-1.38.707A2.518,2.518,0,0,1,26.555,38Z" transform="translate(-23.945 -21.805)" fill="#ffc91e" stroke="#ffc91e" stroke-width="0.3"/>
  </g>
</svg>
