<svg xmlns="http://www.w3.org/2000/svg" width="23.76" height="23.774" viewBox="0 0 23.76 23.774">
  <g id="diversify" transform="translate(0.1 0.127)">
    <g id="Group_250" data-name="Group 250" transform="translate(7.987 0)">
      <g id="Group_249" data-name="Group 249" transform="translate(0 0)">
        <path id="Path_355" data-name="Path 355" d="M170.25,6.215l-3.4-5.89a.408.408,0,0,0-.68,0l-3.4,5.89a.393.393,0,0,0,.34.589h6.8a.393.393,0,0,0,.34-.589Zm-6.461-.2,2.721-4.712,2.721,4.712Z" transform="translate(-162.716 -0.142)" fill="#ffc91e" stroke="#ffc91e" stroke-width="0.2"/>
      </g>
    </g>
    <g id="Group_252" data-name="Group 252" transform="translate(16.492 16.478)">
      <g id="Group_251" data-name="Group 251">
        <path id="Path_356" data-name="Path 356" d="M342.676,335.858h-6.283a.393.393,0,0,0-.393.392h0v6.283a.393.393,0,0,0,.392.393h6.283a.393.393,0,0,0,.393-.393h0v-6.283A.393.393,0,0,0,342.676,335.858Zm-.393,6.283h-5.5v-5.5h5.5Z" transform="translate(-336 -335.858)" fill="#ffc91e" stroke="#ffc91e" stroke-width="0.2"/>
      </g>
    </g>
    <g id="Group_254" data-name="Group 254" transform="translate(0 16.478)">
      <g id="Group_253" data-name="Group 253">
        <path id="Path_357" data-name="Path 357" d="M3.534,335.858a3.534,3.534,0,1,0,3.534,3.534A3.534,3.534,0,0,0,3.534,335.858Zm0,6.283a2.749,2.749,0,1,1,2.749-2.749A2.749,2.749,0,0,1,3.534,342.141Z" transform="translate(0 -335.858)" fill="#ffc91e" stroke="#ffc91e" stroke-width="0.2"/>
      </g>
    </g>
    <g id="Group_256" data-name="Group 256" transform="translate(1.962 3.625)">
      <g id="Group_255" data-name="Group 255">
        <path id="Path_358" data-name="Path 358" d="M46.018,74.705l-.327-.714a9.83,9.83,0,0,0-5.168,12.2l.74-.262A9.044,9.044,0,0,1,46.018,74.705Z" transform="translate(-39.962 -73.991)" fill="#ffc91e" stroke="#ffc91e" stroke-width="0.2"/>
      </g>
    </g>
    <g id="Group_258" data-name="Group 258" transform="translate(7.851 20.831)">
      <g id="Group_257" data-name="Group 257">
        <path id="Path_359" data-name="Path 359" d="M167.262,424.626a9.065,9.065,0,0,1-7-.1l-.314.719a9.847,9.847,0,0,0,7.611.1Z" transform="translate(-159.946 -424.53)" fill="#ffc91e" stroke="#ffc91e" stroke-width="0.2"/>
      </g>
    </g>
    <g id="Group_260" data-name="Group 260" transform="translate(15.92 3.824)">
      <g id="Group_259" data-name="Group 259">
        <path id="Path_360" data-name="Path 360" d="M324.961,78.191h0c-.085-.047-.171-.094-.258-.138l-.359.7q.118.061.235.126l.191-.343-.191.343a9.045,9.045,0,0,1,4.266,10.537l.751.229A9.83,9.83,0,0,0,324.961,78.191Z" transform="translate(-324.344 -78.053)" fill="#ffc91e" stroke="#ffc91e" stroke-width="0.2"/>
      </g>
    </g>
  </g>
</svg>
