<svg id="water-bottle" xmlns="http://www.w3.org/2000/svg" width="34.246" height="34.246" viewBox="0 0 34.246 34.246">
  <path id="Union_16" data-name="Union 16" d="M4.313,23.246.968,19.9a3.316,3.316,0,0,1,0-4.683l1.906-1.9a2.365,2.365,0,0,1,2.008-.668A2.366,2.366,0,0,1,7.556,9.97a2.366,2.366,0,0,1,2.678-2.676A2.359,2.359,0,0,1,10.9,5.287l.829-.829A4.242,4.242,0,0,1,14,3.276l3.879-.684a1.417,1.417,0,0,1,.38-1.318l.858-.858a1.419,1.419,0,0,1,2.008,0L23.8,3.092a1.417,1.417,0,0,1,0,2.007l-.858.858a1.412,1.412,0,0,1-1.318.38l-.684,3.879a4.229,4.229,0,0,1-1.182,2.27l-.829.829a2.357,2.357,0,0,1-2.008.669,2.365,2.365,0,0,1-2.677,2.676,2.363,2.363,0,0,1-2.676,2.675A2.356,2.356,0,0,1,10.9,21.34L9,23.246a3.317,3.317,0,0,1-4.684,0Zm-.771-9.263L1.636,15.888a2.37,2.37,0,0,0,0,3.345l3.344,3.344a2.369,2.369,0,0,0,3.346,0l1.906-1.906a1.421,1.421,0,0,0,0-2.007L5.551,13.983a1.423,1.423,0,0,0-2.009,0Zm2.677-2.676a1.419,1.419,0,0,0,0,2.007L10.9,18a1.419,1.419,0,1,0,2.006-2.007h0L8.226,11.307h0a1.418,1.418,0,0,0-2.005,0ZM8.9,8.632a1.417,1.417,0,0,0,0,2.007l4.682,4.682a1.419,1.419,0,0,0,2.008-2.006L10.9,8.632a1.417,1.417,0,0,0-2.006,0Zm5.271-4.424a3.3,3.3,0,0,0-1.766.919l-.83.829a1.421,1.421,0,0,0,0,2.007l4.684,4.683a1.42,1.42,0,0,0,2.006,0l.829-.829a3.3,3.3,0,0,0,.921-1.766l.753-4.268L18.435,3.454Zm5.622-3.123-.858.858a.471.471,0,0,0,0,.669l2.676,2.676a.472.472,0,0,0,.668,0l.858-.858a.472.472,0,0,0,0-.669L20.455,1.085a.471.471,0,0,0-.667,0Zm-2.531,9.888a.473.473,0,1,1,.668,0,.472.472,0,0,1-.668,0ZM15.919,9.635,13.634,7.351a.474.474,0,0,1,.671-.669l2.284,2.284a.473.473,0,0,1-.67.669Z" transform="translate(0 17.124) rotate(-45)" fill="#ffc91e"/>
</svg>
