<svg id="meat" xmlns="http://www.w3.org/2000/svg" width="24.062" height="18.794" viewBox="0 0 24.062 18.794">
  <g id="Group_240" data-name="Group 240" transform="translate(0 0)">
    <g id="Group_239" data-name="Group 239" transform="translate(0 0)">
      <path id="Path_350" data-name="Path 350" d="M22.016,59.316a12.869,12.869,0,0,0-4.6-2.128,39.52,39.52,0,0,0-9.659-1.145A7.763,7.763,0,0,0,0,63.8v3.286a7.763,7.763,0,0,0,7.754,7.754,12.318,12.318,0,0,0,5.02-1.272A13.673,13.673,0,0,1,18.43,72.19a5.639,5.639,0,0,0,5.633-5.633V63.272A4.925,4.925,0,0,0,22.016,59.316Zm-.4,8.034a.47.47,0,0,0,.664.02,5.644,5.644,0,0,0,.837-.995v.182a4.7,4.7,0,0,1-4.693,4.693A14.45,14.45,0,0,0,12.413,72.7a11.576,11.576,0,0,1-4.658,1.2,6.823,6.823,0,0,1-6.8-6.376,7.761,7.761,0,0,0,6.8,4.031,12.318,12.318,0,0,0,5.02-1.272A13.673,13.673,0,0,1,18.43,68.9c.175,0,.352-.008.526-.025a.47.47,0,1,0-.088-.936c-.145.014-.292.02-.438.02a14.45,14.45,0,0,0-6.017,1.448,11.576,11.576,0,0,1-4.658,1.2,6.815,6.815,0,0,1,0-13.629,38.551,38.551,0,0,1,9.41,1.112c3.953,1.086,5.958,2.828,5.958,5.178a4.71,4.71,0,0,1-1.482,3.413A.47.47,0,0,0,21.62,67.35Z" transform="translate(0 -56.043)" fill="#ffc91e"/>
    </g>
  </g>
  <g id="Group_242" data-name="Group 242" transform="translate(20.338 11.337)">
    <g id="Group_241" data-name="Group 241" transform="translate(0 0)">
      <path id="Path_351" data-name="Path 351" d="M433.646,297.551a.47.47,0,0,0-.625-.225l-.011.005a.47.47,0,1,0,.637.22Z" transform="translate(-432.75 -297.281)" fill="#ffc91e"/>
    </g>
  </g>
  <g id="Group_244" data-name="Group 244" transform="translate(10.615 2.009)">
    <g id="Group_243" data-name="Group 243" transform="translate(0 0)">
      <path id="Path_352" data-name="Path 352" d="M226.408,98.792l-.024,0a.47.47,0,0,0-.075.937l.024,0,.038,0a.47.47,0,0,0,.037-.938Z" transform="translate(-225.877 -98.789)" fill="#ffc91e"/>
    </g>
  </g>
  <g id="Group_246" data-name="Group 246" transform="translate(1.88 1.88)">
    <g id="Group_245" data-name="Group 245" transform="translate(0 0)">
      <path id="Path_353" data-name="Path 353" d="M60.007,100.126a5.7,5.7,0,0,0-3.083-2.366A20.107,20.107,0,0,0,53.3,96.716c-.568-.111-1.163-.211-1.769-.3a.47.47,0,1,0-.13.931c.589.082,1.167.179,1.718.287,3.228.633,5.433,1.694,6.048,2.911a1.822,1.822,0,0,1,.192.842,2.816,2.816,0,0,1-2.813,2.813,14.367,14.367,0,0,0-4.655.784c-.674.227-1.328.5-1.961.761-.419.174-.851.353-1.281.516a7.559,7.559,0,0,1-2.778.586,4.935,4.935,0,1,1,0-9.869c.531,0,1.07.01,1.6.03l.271.011a.47.47,0,0,0,.041-.939l-.278-.011c-.544-.02-1.094-.031-1.637-.031a5.875,5.875,0,1,0,0,11.749,8.433,8.433,0,0,0,3.111-.647c.443-.168.883-.35,1.308-.527.618-.257,1.257-.522,1.9-.739a13.442,13.442,0,0,1,4.355-.734,3.757,3.757,0,0,0,3.753-3.753A2.74,2.74,0,0,0,60.007,100.126Z" transform="translate(-39.998 -96.042)" fill="#ffc91e"/>
    </g>
  </g>
  <g id="Group_248" data-name="Group 248" transform="translate(5.822 3.749)">
    <g id="Group_247" data-name="Group 247" transform="translate(0 0)">
      <path id="Path_354" data-name="Path 354" d="M126.26,135.82a2.171,2.171,0,1,0,2.383,2.161A2.283,2.283,0,0,0,126.26,135.82Zm0,3.382a1.238,1.238,0,1,1,1.443-1.221A1.347,1.347,0,0,1,126.26,139.2Z" transform="translate(-123.877 -135.82)" fill="#ffc91e"/>
    </g>
  </g>
</svg>
