<svg xmlns="http://www.w3.org/2000/svg" width="28.458" height="28.457" viewBox="0 0 28.458 28.457">
  <g id="anise-candy" transform="translate(0.051 0.051)">
    <path id="Path_339" data-name="Path 339" d="M199.965,137.063a.453.453,0,0,0,.64.64,1.91,1.91,0,0,1,2.7,0,.452.452,0,0,0,.64-.64A2.816,2.816,0,0,0,199.965,137.063Z" transform="translate(-187.776 -128.02)" fill="#ffc91e" stroke="#ffc91e" stroke-width="0.1"/>
    <path id="Path_340" data-name="Path 340" d="M149.677,169.025l-1.867,1.867a.453.453,0,0,0,.64.64l1.867-1.867a.453.453,0,1,0-.64-.64Z" transform="translate(-138.769 -158.702)" fill="#ffc91e" stroke="#ffc91e" stroke-width="0.1"/>
    <path id="Path_341" data-name="Path 341" d="M28.223,8.566a2.438,2.438,0,0,1-.679-1.142,3.308,3.308,0,0,0-.9-1.5,3.309,3.309,0,0,0-1.5-.9,2.437,2.437,0,0,1-1.142-.679,2.437,2.437,0,0,1-.679-1.142,3.309,3.309,0,0,0-.9-1.5,3.308,3.308,0,0,0-1.5-.9A2.438,2.438,0,0,1,19.788.131a.453.453,0,0,0-.715.1A15.214,15.214,0,0,0,17.267,7.59a4.623,4.623,0,0,0-6.358.17L7.762,10.907a4.629,4.629,0,0,0-.17,6.358A15.216,15.216,0,0,0,.232,19.071a.453.453,0,0,0-.1.715,2.438,2.438,0,0,1,.679,1.142,3.308,3.308,0,0,0,.9,1.5,3.309,3.309,0,0,0,1.5.9A2.437,2.437,0,0,1,4.35,24a2.437,2.437,0,0,1,.679,1.142,3.309,3.309,0,0,0,.9,1.5,3.308,3.308,0,0,0,1.5.9,2.438,2.438,0,0,1,1.142.679.453.453,0,0,0,.32.132.447.447,0,0,0,.062,0,.452.452,0,0,0,.333-.227,15.213,15.213,0,0,0,1.806-7.361,4.623,4.623,0,0,0,6.358-.17l3.147-3.147a4.629,4.629,0,0,0,.17-6.359q.292.017.581.017a15.58,15.58,0,0,0,6.78-1.823.453.453,0,0,0,.1-.715Zm-8.27,8.239-3.147,3.147a3.718,3.718,0,0,1-5.258,0L8.4,16.805a3.722,3.722,0,0,1,0-5.258L11.549,8.4a3.718,3.718,0,0,1,5.258,0l3.147,3.147A3.722,3.722,0,0,1,19.954,16.805ZM7.709,26.683A2.438,2.438,0,0,1,6.568,26a2.437,2.437,0,0,1-.679-1.142,3.309,3.309,0,0,0-.9-1.5,3.309,3.309,0,0,0-1.5-.9,2.437,2.437,0,0,1-1.142-.679,2.438,2.438,0,0,1-.679-1.142,3.39,3.39,0,0,0-.5-1.035c1.2-.568,4.363-1.86,7.335-1.327a13.525,13.525,0,0,0-1.223.625.452.452,0,1,0,.449.786,10.943,10.943,0,0,1,1.533-.744l.139.139a22.078,22.078,0,0,1-2.776,4.561.452.452,0,1,0,.723.544,24.66,24.66,0,0,0,2.72-4.346c.532,2.972-.76,6.135-1.328,7.334A3.389,3.389,0,0,0,7.709,26.683ZM19.849,10.07a24.659,24.659,0,0,0,4.345-2.719.452.452,0,0,0-.544-.723A22.072,22.072,0,0,1,19.09,9.4l-.139-.139A22.076,22.076,0,0,1,21.727,4.7.452.452,0,0,0,21,4.16a24.661,24.661,0,0,0-2.72,4.346c-.532-2.972.76-6.135,1.328-7.334a3.39,3.39,0,0,0,1.035.5,2.438,2.438,0,0,1,1.142.679,2.437,2.437,0,0,1,.679,1.142,3.309,3.309,0,0,0,.9,1.5,3.309,3.309,0,0,0,1.5.9,2.437,2.437,0,0,1,1.142.679,2.438,2.438,0,0,1,.679,1.142,3.39,3.39,0,0,0,.5,1.035C25.983,9.31,22.821,10.6,19.849,10.07Z" transform="translate(0 0.002)" fill="#ffc91e" stroke="#ffc91e" stroke-width="0.1"/>
    <path id="Path_342" data-name="Path 342" d="M67.731,328.448c-.5.34-1.029.715-1.56,1.115a.452.452,0,1,0,.544.723c.519-.39,1.031-.756,1.522-1.088a.452.452,0,0,0-.506-.75Z" transform="translate(-62.009 -308.559)" fill="#ffc91e" stroke="#ffc91e" stroke-width="0.1"/>
  </g>
</svg>
