<svg xmlns="http://www.w3.org/2000/svg" width="26.938" height="26.936" viewBox="0 0 26.938 26.936">
  <g id="Page-1" transform="translate(0.1 0.101)">
    <g id="_006---Butter" data-name="006---Butter" transform="translate(0 0)">
      <path id="Shape" d="M26.292,21.394H24.955V12.927a1.337,1.337,0,0,0-1.337-1.337H18.872L11.174,5.6h0L9.577,4.36,4.221.194A.891.891,0,0,0,2.971.351l-.547.7a1.783,1.783,0,0,0,.312,2.5L7.036,6.9a.884.884,0,0,0,.545.188.864.864,0,0,0,.112-.007.883.883,0,0,0,.593-.337l.894.7-.272.351a1.325,1.325,0,0,0-.273.994,1.307,1.307,0,0,0,.506.88l2.475,1.926h-8.5a1.337,1.337,0,0,0-1.337,1.337v8.467H.446A.446.446,0,0,0,0,21.839v.891a1.337,1.337,0,0,0,1,1.288l.6,1.808a1.337,1.337,0,0,0,1.266.914h21a1.337,1.337,0,0,0,1.266-.914l.6-1.808a1.337,1.337,0,0,0,1-1.288v-.891a.446.446,0,0,0-.446-.446ZM7.585,6.2l-4.3-3.346A.891.891,0,0,1,3.127,1.6L3.674.9l5,3.892Zm1.8-.86.891.694-.548.7-.891-.694Zm.3,3.621a.427.427,0,0,1-.166-.288.442.442,0,0,1,.092-.332l1.366-1.76L18.716,12.6l-.271.351a2.232,2.232,0,0,1-3.127.394l-.613-.477v-.384a.891.891,0,0,0-.891-.891h-.747ZM2.674,12.927a.446.446,0,0,1,.446-.446h10.7V15.6a.446.446,0,0,0,.891,0V14l.065.051a3.124,3.124,0,0,0,4.378-.552l.267-.348a.877.877,0,0,0,.183-.655v-.009h4.019a.446.446,0,0,1,.446.446v8.465H2.674ZM24.29,25.545a.446.446,0,0,1-.423.3h-21a.446.446,0,0,1-.423-.3l-.492-1.478H24.782Zm1.556-2.815a.446.446,0,0,1-.446.446H1.337a.446.446,0,0,1-.446-.446v-.446H25.846Z" transform="translate(0 -0.007)" fill="#ffc91e" stroke="#ffc91e" stroke-width="0.2"/>
      <path id="Shape-2" data-name="Shape" d="M9.337,30H8.446a.446.446,0,0,0,0,.891h.891a.446.446,0,0,0,0-.891Z" transform="translate(-4.435 -16.634)" fill="#ffc91e" stroke="#ffc91e" stroke-width="0.2"/>
      <path id="Shape-3" data-name="Shape" d="M19.793,30H14.446a.446.446,0,0,0,0,.891h5.348a.446.446,0,1,0,0-.891Z" transform="translate(-7.761 -16.634)" fill="#ffc91e" stroke="#ffc91e" stroke-width="0.2"/>
    </g>
  </g>
</svg>
