<svg xmlns="http://www.w3.org/2000/svg" width="94.603" height="28.123" viewBox="0 0 94.603 28.123">
  <g id="Group_214" data-name="Group 214" transform="translate(-115.999 -98)">
    <g id="Group_5" data-name="Group 5" transform="translate(116 98)">
      <path id="Path_1" data-name="Path 1" d="M2078.235-304.516a15.835,15.835,0,0,0,5.064-6.575.308.308,0,0,0-.29-.412h-9.162a.737.737,0,0,1-.585-1.187l6.767-8.8a.738.738,0,0,1,1.188.025l11.872,16.877a.309.309,0,0,0,.251.13h14.648a.3.3,0,0,0,.207-.08,29.926,29.926,0,0,0,5.385-6.612.308.308,0,0,0-.269-.459H2097.9a.306.306,0,0,1-.253-.134l-12.761-18.668a4.942,4.942,0,0,0-8.066-.134l-18.771,25.6a.307.307,0,0,0,.248.489h19.751A.3.3,0,0,0,2078.235-304.516Z" transform="translate(-2057.993 332.579)" fill="#fff"/>
      <path id="Path_2" data-name="Path 2" d="M2281.752-332.147l12.772,17.735a.306.306,0,0,0,.249.128h14.591a.309.309,0,0,0,.266-.153l4.886-8.4,9.654,16.051a4.146,4.146,0,0,0,7.067.062l15.871-25.37a.354.354,0,0,0-.3-.543h-8.544a.355.355,0,0,0-.3.165l-10.128,15.993a.738.738,0,0,1-1.261-.024l-8.083-13.884a4.644,4.644,0,0,0-8.054.046l-7.848,13.847a.738.738,0,0,1-1.254.047L2290.587-332.5a.307.307,0,0,0-.255-.136H2282A.307.307,0,0,0,2281.752-332.147Z" transform="translate(-2252.561 332.691)" fill="#c9a748"/>
    </g>
    <path id="Path_328" data-name="Path 328" d="M2078.235-304.516a15.835,15.835,0,0,0,5.064-6.575.308.308,0,0,0-.29-.412h-9.162a.737.737,0,0,1-.585-1.187l6.767-8.8a.738.738,0,0,1,1.188.025l11.872,16.877a.309.309,0,0,0,.251.13h14.648a.3.3,0,0,0,.207-.08,29.926,29.926,0,0,0,5.385-6.612.308.308,0,0,0-.269-.459H2097.9a.306.306,0,0,1-.253-.134l-12.761-18.668a4.942,4.942,0,0,0-8.066-.134l-18.771,25.6a.307.307,0,0,0,.248.489h19.751A.3.3,0,0,0,2078.235-304.516Z" transform="translate(-1941.994 430.579)" fill="#fff"/>
    <path id="Path_329" data-name="Path 329" d="M2281.752-332.147l12.772,17.735a.306.306,0,0,0,.249.128h14.591a.309.309,0,0,0,.266-.153l4.886-8.4,9.654,16.051a4.146,4.146,0,0,0,7.067.062l15.871-25.37a.354.354,0,0,0-.3-.543h-8.544a.355.355,0,0,0-.3.165l-10.128,15.993a.738.738,0,0,1-1.261-.024l-8.083-13.884a4.644,4.644,0,0,0-8.054.046l-7.848,13.847a.738.738,0,0,1-1.254.047L2290.587-332.5a.307.307,0,0,0-.255-.136H2282A.307.307,0,0,0,2281.752-332.147Z" transform="translate(-2136.561 430.691)" fill="#c9a748"/>
  </g>
</svg>
