<svg xmlns="http://www.w3.org/2000/svg" width="27.929" height="18.299" viewBox="0 0 27.929 18.299">
  <g id="turkey" transform="translate(-0.001 0)">
    <path id="Path_7412" data-name="Path 7412" d="M25.838,88.275H2.092A2.092,2.092,0,0,0,0,90.367v14.116a2.092,2.092,0,0,0,2.092,2.092H25.838a2.092,2.092,0,0,0,2.092-2.092V90.367A2.092,2.092,0,0,0,25.838,88.275Z" transform="translate(0.001 -88.275)" fill="#ff4b55"/>
    <g id="Group_2116" data-name="Group 2116" transform="translate(3.636 4.334)">
      <path id="Path_7413" data-name="Path 7413" d="M230.261,225.257l.755.987,1.179-.395a.072.072,0,0,1,.083.11l-.706,1.023.739,1a.072.072,0,0,1-.079.112l-1.191-.355-.722,1.012a.072.072,0,0,1-.131-.04l-.03-1.242-1.185-.374a.072.072,0,0,1,0-.137l1.172-.413-.011-1.243A.072.072,0,0,1,230.261,225.257Z" transform="translate(-220.069 -222.091)" fill="#f5f5f5"/>
      <path id="Path_7414" data-name="Path 7414" d="M72.665,176.393a3.855,3.855,0,0,1,0-7.709,3.78,3.78,0,0,1,2.13.655.093.093,0,0,0,.121-.14,4.776,4.776,0,0,0-3.622-1.473,4.816,4.816,0,0,0,.167,9.628,4.777,4.777,0,0,0,3.458-1.479.093.093,0,0,0-.122-.138A3.782,3.782,0,0,1,72.665,176.393Z" transform="translate(-66.648 -167.723)" fill="#f5f5f5"/>
    </g>
  </g>
</svg>
